<?xml version="1.0" encoding="UTF-8" standalone="no"?>
<svg width="30px" height="30px" viewBox="0 0 30 30" version="1.1" xmlns="http://www.w3.org/2000/svg" xmlns:xlink="http://www.w3.org/1999/xlink">
    <!-- Generator: Sketch 3.8.2 (29753) - http://www.bohemiancoding.com/sketch -->
    <title>Instagram-black</title>
    <desc>Created with Sketch.</desc>
    <defs></defs>
    <g id="Page-1" stroke="none" stroke-width="1" fill="none" fill-rule="evenodd">
        <g id="Forside" transform="translate(-131.000000, -2863.000000)" fill="#000000">
            <path d="M145.792998,2863 C141.77544,2863 141.271674,2863.01703 139.693847,2863.08902 C138.119308,2863.16084 137.043954,2863.41093 136.103012,2863.77664 C135.130244,2864.15463 134.305275,2864.66045 133.482832,2865.48283 C132.660448,2866.30528 132.154627,2867.13024 131.776641,2868.10301 C131.410928,2869.04395 131.160836,2870.11931 131.089021,2871.69385 C131.017029,2873.27167 131,2873.77544 131,2877.793 C131,2881.8105 131.017029,2882.31426 131.089021,2883.89209 C131.160836,2885.46663 131.410928,2886.54198 131.776641,2887.48293 C132.154627,2888.45569 132.660448,2889.28066 133.482832,2890.10311 C134.305275,2890.92549 135.130244,2891.43131 136.103012,2891.80936 C137.043954,2892.17501 138.119308,2892.4251 139.693847,2892.49692 C141.271674,2892.56891 141.77544,2892.58594 145.792998,2892.58594 C149.810498,2892.58594 150.314263,2892.56891 151.892091,2892.49692 C153.46663,2892.4251 154.541984,2892.17501 155.482925,2891.80936 C156.455694,2891.43131 157.280662,2890.92549 158.103105,2890.10311 C158.92549,2889.28066 159.431311,2888.45569 159.809355,2887.48293 C160.175009,2886.54198 160.425101,2885.46663 160.496917,2883.89209 C160.568908,2882.31426 160.585938,2881.8105 160.585938,2877.793 C160.585938,2873.77544 160.568908,2873.27167 160.496917,2871.69385 C160.425101,2870.11931 160.175009,2869.04395 159.809355,2868.10301 C159.431311,2867.13024 158.92549,2866.30528 158.103105,2865.48283 C157.280662,2864.66045 156.455694,2864.15463 155.482925,2863.77664 C154.541984,2863.41093 153.46663,2863.16084 151.892091,2863.08902 C150.314263,2863.01703 149.810498,2863 145.792998,2863 Z M145.792998,2865.6654 C149.742852,2865.6654 150.210739,2865.68049 151.770598,2865.75166 C153.212897,2865.81742 153.996174,2866.05841 154.517438,2866.261 C155.207936,2866.52935 155.700721,2866.84991 156.218344,2867.36759 C156.736027,2867.88522 157.056584,2868.378 157.324938,2869.0685 C157.527524,2869.58976 157.768514,2870.37304 157.834282,2871.81534 C157.905451,2873.3752 157.920542,2873.84309 157.920542,2877.793 C157.920542,2881.74285 157.905451,2882.21074 157.834282,2883.7706 C157.768514,2885.2129 157.527524,2885.99617 157.324938,2886.51744 C157.056584,2887.20794 156.736027,2887.70072 156.218344,2888.21834 C155.700721,2888.73603 155.207936,2889.05658 154.517438,2889.32494 C153.996174,2889.52752 153.212897,2889.76851 151.770598,2889.83428 C150.210974,2889.90545 149.743145,2889.92054 145.792998,2889.92054 C141.842792,2889.92054 141.375023,2889.90545 139.81534,2889.83428 C138.37304,2889.76851 137.589764,2889.52752 137.068499,2889.32494 C136.378002,2889.05658 135.885217,2888.73603 135.367593,2888.21834 C134.849969,2887.70072 134.529354,2887.20794 134.261,2886.51744 C134.058413,2885.99617 133.817423,2885.2129 133.751656,2883.7706 C133.680486,2882.21074 133.665395,2881.74285 133.665395,2877.793 C133.665395,2873.84309 133.680486,2873.3752 133.751656,2871.81534 C133.817423,2870.37304 134.058413,2869.58976 134.261,2869.0685 C134.529354,2868.378 134.849911,2867.88522 135.367593,2867.36759 C135.885217,2866.84991 136.378002,2866.52935 137.068499,2866.261 C137.589764,2866.05841 138.37304,2865.81742 139.81534,2865.75166 C141.375199,2865.68049 141.843086,2865.6654 145.792998,2865.6654 Z M145.792998,2870.19658 C141.597574,2870.19658 138.196584,2873.59757 138.196584,2877.793 C138.196584,2881.98836 141.597574,2885.38935 145.792998,2885.38935 C149.988363,2885.38935 153.389353,2881.98836 153.389353,2877.793 C153.389353,2873.59757 149.988363,2870.19658 145.792998,2870.19658 Z M145.792998,2882.72396 C143.069646,2882.72396 140.861979,2880.51629 140.861979,2877.793 C140.861979,2875.06965 143.069646,2872.86198 145.792998,2872.86198 C148.516292,2872.86198 150.723958,2875.06965 150.723958,2877.793 C150.723958,2880.51629 148.516292,2882.72396 145.792998,2882.72396 Z M155.464663,2869.89646 C155.464663,2870.87686 154.669877,2871.67159 153.689475,2871.67159 C152.709132,2871.67159 151.914346,2870.87686 151.914346,2869.89646 C151.914346,2868.91606 152.709132,2868.12127 153.689475,2868.12127 C154.669877,2868.12127 155.464663,2868.91606 155.464663,2869.89646 Z" id="Instagram"></path>
        </g>
    </g>
</svg>