<svg xmlns="http://www.w3.org/2000/svg" width="737.453" height="204.013"><path d="M333.321 141.96h-20.436c-.872 0-1.654.784-1.654 1.655v8.768c0 .957.782 1.654 1.654 1.654h8.156v30.6c0 4.357-2.7 6.619-5.138 6.619-2.354 0-3.398-.783-4.443-1.828-.696-.697-1.653-.61-2.35 0l-5.923 5.835c-.523.61-.61 1.48-.174 2.178 1.48 1.83 5.66 6.358 13.238 6.358 10.189 0 18.726-6.968 18.726-19.075v-41.11c0-.87-.698-1.654-1.656-1.654M376.875 161.208c0 3.919-3.136 6.88-6.88 6.88h-.467l-8.525-13.325h8.992c3.744 0 6.88 2.788 6.88 6.445m.133 18.575c7.67-2.612 13.279-9.952 13.279-18.575 0-10.54-8.796-19.25-19.51-19.25h-22.732c-.957 0-1.653.785-1.653 1.657v11.148h.008-.008l8.255 13.325-6.602.001c-.957 0-1.653.786-1.653 1.655v31.53c0 .87.696 1.654 1.653 1.654h10.279c.87 0 1.655-.784 1.655-1.655v-20.468h2.545l13.219 21.34c.174.347.696.783 1.393.783h11.583c1.481 0 2.09-1.395 1.481-2.528l-13.192-20.617M212.972 201.273c0 .87.697 1.655 1.655 1.655h28.933c.87 0 1.655-.786 1.655-1.655v-8.767c0-.96-.784-1.657-1.655-1.657h-16.653v-47.236c0-.869-.696-1.654-1.654-1.654h-10.626c-.871 0-1.655.785-1.655 1.654v57.66" fill="#231f20"/><path d="M292.145 154.764c.871 0 1.655-.698 1.655-1.655v-9.494c0-.872-.784-1.655-1.655-1.655h-35.972c-.87 0-1.654.783-1.654 1.655v9.494c0 .957.784 1.655 1.654 1.655h35.972M292.145 202.928c.871 0 1.655-.697 1.655-1.655v-9.495c0-.869-.784-1.654-1.655-1.654h-35.972c-.87 0-1.654.785-1.654 1.654v9.495c0 .958.784 1.655 1.654 1.655h35.972M292.145 178.845c.871 0 1.655-.696 1.655-1.655v-9.493c0-.87-.784-1.654-1.655-1.654h-35.972c-.87 0-1.654.784-1.654 1.654v9.493c0 .96.784 1.655 1.654 1.655h35.972" fill="#706d6e"/><path d="M236.401 81.103c-6.88-2.788-9.494-5.226-9.494-8.448 0-2.354 2.353-4.443 5.488-4.443 5.313 0 11.67 4.79 12.453 5.226.785.61 2.353-.174 2.963-1.132l4.442-6.707c.347-.61.522-2.176-.524-2.787-2.612-1.916-9.581-6.533-18.638-6.533-13.412 0-20.12 8.71-20.12 17.333 0 10.452 9.406 16.287 16.897 19.25 5.923 2.35 8.972 5.137 8.972 8.795 0 3.048-2.527 5.227-6.01 5.227-5.749 0-12.02-4.617-12.369-4.79-.609-.437-2.264-.611-2.96.521l-4.094 7.228c-.696 1.221-.436 1.569.437 2.44 2.003 2.003 8.273 6.706 19.595 6.706 12.804 0 20.554-9.057 20.554-18.027 0-11.847-10.8-17.16-17.592-19.86M719.863 81.103c-6.879-2.788-9.494-5.226-9.494-8.448 0-2.354 2.352-4.443 5.487-4.443 5.313 0 11.672 4.79 12.456 5.226.784.61 2.35-.174 2.96-1.132l4.443-6.707c.348-.61.522-2.176-.523-2.787-2.613-1.916-9.581-6.533-18.64-6.533-13.412 0-20.119 8.71-20.119 17.333 0 10.452 9.407 16.287 16.896 19.25 5.924 2.35 8.972 5.137 8.972 8.795 0 3.048-2.526 5.227-6.009 5.227-5.75 0-12.02-4.617-12.368-4.79-.61-.437-2.265-.611-2.961.521l-4.094 7.228c-.696 1.221-.436 1.569.436 2.44 2.003 2.003 8.274 6.706 19.596 6.706 12.806 0 20.555-9.057 20.555-18.027 0-11.847-10.8-17.16-17.593-19.86M431.48 105.228h-7.49V69.953h7.49c9.841 0 16.984 7.752 16.984 17.595 0 9.928-7.143 17.68-16.984 17.68m.87-48.077h-20.38c-.871 0-1.566.784-1.566 1.656v57.657c0 .87.695 1.653 1.567 1.653h20.38c16.809 0 30.57-13.672 30.57-30.57 0-16.722-13.761-30.396-30.57-30.396M632.137 57.15h-10.452c-.958 0-1.656.785-1.656 1.657v33.532h-.086l-26.479-34.752c-.696-.698-1.307-1.307-2.176-1.307h-8.275c-.869 0-1.653.697-1.653 1.568v58.616c0 .871.87 1.653 1.74 1.653h10.365c.959 0 1.655-.782 1.655-1.653V81.365h.088l26.912 36.667c.699.696 1.307.957 2.177.957h7.84c.87 0 1.654-.522 1.654-1.566V58.807c0-.872-.784-1.656-1.654-1.656M396.777 57.15h-20.436c-.872 0-1.654.785-1.654 1.657v8.766c0 .958.782 1.655 1.654 1.655h8.155v30.6c0 4.356-2.699 6.62-5.137 6.62-2.354 0-3.399-.785-4.443-1.829-.697-.696-1.653-.61-2.352 0l-5.921 5.835c-.524.61-.61 1.48-.175 2.177 1.481 1.83 5.66 6.358 13.24 6.358 10.19 0 18.724-6.967 18.724-19.074V58.807c0-.872-.697-1.656-1.655-1.656M288.39 83.28h-.467l-8.526-13.327h8.992c3.746 0 6.882 2.788 6.882 6.447 0 3.918-3.136 6.88-6.882 6.88m.784-26.128h-22.732c-.957 0-1.653.783-1.653 1.653v11.148h.007l-.007.002 8.253 13.325-6.6.001c-.957 0-1.653.783-1.653 1.655v31.527c0 .872.696 1.656 1.653 1.656h10.278c.87 0 1.656-.784 1.656-1.656V95.995h10.885c10.627 0 19.423-8.796 19.423-19.595 0-10.539-8.796-19.248-19.51-19.248M557.005 76.4c0 3.918-3.134 6.88-6.88 6.88h-.468l-8.524-13.327h8.992c3.746 0 6.88 2.788 6.88 6.446m.134 18.576c7.67-2.613 13.28-9.952 13.28-18.576 0-10.539-8.798-19.248-19.511-19.248h-22.732c-.957 0-1.653.784-1.653 1.656v11.146h.008l-.008.002 8.253 13.325h-6.6c-.957 0-1.653.785-1.653 1.657v31.527c0 .87.696 1.655 1.653 1.655h10.279c.87 0 1.654-.785 1.654-1.655V95.997h2.546l13.22 21.337c.172.35.694.785 1.39.785h11.584c1.482 0 2.091-1.394 1.482-2.526l-13.192-20.618" fill="#231f20"/><path d="M356.807 69.953c.87 0 1.654-.696 1.654-1.654v-9.492c0-.872-.784-1.656-1.654-1.656h-35.972c-.872 0-1.655.784-1.655 1.656v9.492c0 .958.783 1.654 1.655 1.654h35.972M356.807 118.12c.87 0 1.654-.697 1.654-1.657v-9.492c0-.871-.784-1.655-1.654-1.655h-35.972c-.872 0-1.655.784-1.655 1.655v9.492c0 .96.783 1.656 1.655 1.656h35.972M356.807 94.036c.87 0 1.654-.696 1.654-1.655v-9.493c0-.87-.784-1.655-1.654-1.655h-35.972c-.872 0-1.655.784-1.655 1.655v9.493c0 .96.783 1.655 1.655 1.655h35.972" fill="#f03c56"/><path d="M511.516 69.953c.87 0 1.655-.696 1.655-1.654v-9.492c0-.872-.786-1.656-1.655-1.656h-35.973c-.871 0-1.654.784-1.654 1.656v9.492c0 .958.783 1.654 1.654 1.654h35.973M511.516 118.12c.87 0 1.655-.697 1.655-1.657v-9.492c0-.871-.786-1.655-1.655-1.655h-35.973c-.871 0-1.654.784-1.654 1.655v9.492c0 .96.783 1.656 1.654 1.656h35.973M511.516 94.036c.87 0 1.655-.696 1.655-1.655v-9.493c0-.87-.786-1.655-1.655-1.655h-35.973c-.871 0-1.654.784-1.654 1.655v9.493c0 .96.783 1.655 1.654 1.655h35.973" fill="#3e9aa1"/><path d="M683.704 69.953c.87 0 1.655-.696 1.655-1.654v-9.492c0-.872-.786-1.656-1.655-1.656h-35.973c-.87 0-1.654.784-1.654 1.656v9.492c0 .958.784 1.654 1.654 1.654h35.973M683.704 118.12c.87 0 1.655-.697 1.655-1.657v-9.492c0-.871-.786-1.655-1.655-1.655h-35.973c-.87 0-1.654.784-1.654 1.655v9.492c0 .96.784 1.656 1.654 1.656h35.973M683.704 94.036c.87 0 1.655-.696 1.655-1.655v-9.493c0-.87-.786-1.655-1.655-1.655h-35.973c-.87 0-1.654.784-1.654 1.655v9.493c0 .96.784 1.655 1.654 1.655h35.973" fill="#fab235"/><path d="M118.266 192.583L95.207 156.8l26.979-41.643 49.906 77.425zm-102.412 0L93.969 71.376l21.587 33.433-56.895 87.774zm170.827 1.824l-.238-.25L98.714 57.951a4.578 4.578 0 00-1.279-1.296V3.413a3.42 3.42 0 00-.999-2.416A3.422 3.422 0 0094.02 0a3.415 3.415 0 00-3.415 3.414v53.222a4.64 4.64 0 00-1.333 1.321L.896 195.159a5.6 5.6 0 00-.206 5.731A5.536 5.536 0 005.58 203.8h177.004a5.609 5.609 0 005.602-5.602c0-1.417-.548-2.798-1.506-3.79" fill="#231f20"/><path d="M137.841 16.627l6.354-8.164a3.418 3.418 0 00-2.699-5.5h-37.227V30.29h37.227a3.408 3.408 0 003.057-1.912 3.415 3.415 0 00-.358-3.587l-6.354-8.165" fill="#3e9aa1"/><path d="M456.315 191.97v9.505c0 .915-.744 1.66-1.662 1.66h-36.789a1.663 1.663 0 01-1.664-1.634l-.132-6.923c-.01-.431.15-.851.444-1.167l17.387-18.756c4.804-5.07 7.536-8.882 7.472-13.254-.056-3.637-3.307-6.538-6.94-6.333-2.935.167-5.51 1.553-7.778 4.357a1.648 1.648 0 01-2.248.299c-1.96-1.413-5.612-4.05-7.533-5.436-.736-.53-.897-1.541-.392-2.293 3.752-5.606 10.112-10.04 19.704-10.04 10.373 0 19.516 6.768 19.516 18.02 0 6.856-1.759 12.042-9.759 20.393l-9.404 9.756v.176h18.11a1.67 1.67 0 011.668 1.67M556.032 191.97v9.505c0 .915-.744 1.66-1.66 1.66h-36.79a1.663 1.663 0 01-1.665-1.634l-.133-6.923c-.008-.431.15-.851.445-1.167l17.387-18.756c4.804-5.07 7.537-8.882 7.47-13.254-.054-3.637-3.305-6.538-6.937-6.333-2.936.167-5.51 1.553-7.778 4.357a1.65 1.65 0 01-2.25.299l-7.532-5.436c-.736-.53-.897-1.541-.393-2.293 3.753-5.606 10.113-10.04 19.705-10.04 10.372 0 19.516 6.768 19.516 18.02 0 6.856-1.76 12.042-9.758 20.393l-9.406 9.756v.176h18.111c.92 0 1.668.748 1.668 1.67M601.653 191.97v9.505c0 .915-.744 1.66-1.661 1.66h-36.79a1.663 1.663 0 01-1.663-1.634l-.134-6.923c-.008-.431.151-.851.446-1.167l17.386-18.756c4.804-5.07 7.536-8.882 7.471-13.254-.055-3.637-3.307-6.538-6.94-6.333-2.933.167-5.51 1.553-7.779 4.357a1.646 1.646 0 01-2.246.299c-1.959-1.413-5.612-4.05-7.535-5.436-.733-.53-.895-1.541-.39-2.293 3.751-5.606 10.113-10.04 19.705-10.04 10.372 0 19.514 6.768 19.514 18.02 0 6.856-1.758 12.042-9.757 20.393l-9.405 9.756v.176h18.109c.921 0 1.67.748 1.67 1.67M495.781 172.896c0-10.636-3.164-17.67-9.405-17.67-5.537 0-9.317 5.803-9.317 17.67 0 10.636 3.164 17.844 9.317 17.844 5.715 0 9.405-5.801 9.405-17.844zm-33.402 0c0-18.724 9.229-30.941 23.997-30.941 14.417 0 23.999 11.601 23.999 30.941 0 18.899-9.231 31.117-23.999 31.117-14.416 0-23.997-11.69-23.997-31.117" fill="#231f20"/></svg>