<svg id="svg" version="1.1" xmlns="http://www.w3.org/2000/svg" xmlns:xlink="http://www.w3.org/1999/xlink"
     width="140" height="140"
     viewBox="0, 0, 400,278.38827838827837"><g id="svgg"><path id="path0" d="M206.692 11.593 C 206.678 18.664,206.764 21.626,206.992 21.900 C 207.389 22.378,234.540 22.483,234.540 22.006 C 234.540 21.852,234.772 21.727,235.054 21.727 C 236.577 21.727,237.228 18.596,235.983 17.260 C 235.649 16.901,235.376 16.450,235.376 16.257 C 235.376 16.063,235.185 15.798,234.951 15.667 C 234.466 15.396,232.041 12.242,232.036 11.877 C 232.035 11.745,232.793 10.679,233.720 9.509 C 234.648 8.339,235.645 7.079,235.937 6.710 C 237.180 5.131,236.843 2.870,235.251 2.115 C 234.436 1.728,232.559 1.671,220.514 1.671 L 206.712 1.671 206.692 11.593 M198.942 166.908 C 198.448 167.402,198.495 175.734,198.995 176.393 C 199.339 176.846,200.385 176.880,213.928 176.880 C 227.470 176.880,228.516 176.846,228.860 176.393 C 229.360 175.734,229.407 167.402,228.914 166.908 C 228.432 166.426,199.424 166.426,198.942 166.908 M198.942 185.292 C 198.422 185.812,198.478 194.340,199.005 194.867 C 199.600 195.462,228.255 195.462,228.850 194.867 C 229.377 194.340,229.434 185.812,228.914 185.292 C 228.432 184.810,199.424 184.810,198.942 185.292 M198.942 203.677 C 198.381 204.237,198.479 212.983,199.048 213.201 C 199.290 213.294,205.986 213.370,213.928 213.370 C 221.869 213.370,228.565 213.294,228.807 213.201 C 229.376 212.983,229.474 204.237,228.914 203.677 C 228.432 203.195,199.424 203.195,198.942 203.677 M80.103 231.635 C 79.744 231.995,79.666 232.834,79.666 236.352 L 79.666 240.631 80.475 241.207 C 81.343 241.825,109.192 242.145,109.192 241.537 C 109.192 241.401,109.443 241.225,109.749 241.145 C 110.424 240.968,110.628 232.187,109.972 231.532 C 109.401 230.961,80.679 231.060,80.103 231.635 M80.138 249.934 C 79.599 250.602,79.511 258.993,80.037 259.518 C 80.382 259.862,108.680 259.964,109.573 259.624 L 110.306 259.345 110.306 254.785 C 110.306 248.605,112.260 249.303,94.964 249.307 L 80.641 249.311 80.138 249.934 M80.292 268.154 C 79.376 268.794,79.318 276.811,80.223 277.716 C 80.864 278.357,108.600 278.609,109.768 277.985 C 110.569 277.556,110.595 268.871,109.797 268.149 C 109.042 267.466,81.272 267.471,80.292 268.154 " stroke="none" fill="#458a94" fill-rule="evenodd"></path><path id="path1" d="M330.153 166.757 C 329.417 167.057,329.683 176.561,330.432 176.743 C 330.776 176.827,337.577 176.860,345.543 176.818 L 360.028 176.741 360.028 171.727 L 360.028 166.713 345.265 166.664 C 337.145 166.637,330.345 166.679,330.153 166.757 M330.153 185.141 C 329.615 185.360,329.661 194.325,330.203 194.867 C 330.538 195.201,332.924 195.265,345.239 195.265 L 359.878 195.265 360.033 194.638 C 360.118 194.293,360.151 192.006,360.107 189.554 L 360.028 185.097 345.265 185.049 C 337.145 185.022,330.345 185.063,330.153 185.141 M330.153 203.526 C 329.418 203.825,329.683 213.052,330.432 213.233 C 330.776 213.317,337.577 213.351,345.543 213.308 L 360.028 213.231 360.028 208.357 L 360.028 203.482 345.265 203.433 C 337.145 203.406,330.345 203.448,330.153 203.526 " stroke="none" fill="#fcbc44" fill-rule="evenodd"></path><path id="path2" d="M80.956 167.201 C 80.863 167.545,80.788 169.582,80.788 171.727 C 80.788 173.872,80.863 175.909,80.956 176.253 L 81.123 176.880 95.984 176.880 C 110.390 176.880,110.853 176.864,111.132 176.341 C 111.438 175.769,111.531 168.268,111.245 167.201 L 111.077 166.574 96.100 166.574 L 81.123 166.574 80.956 167.201 M81.068 185.497 C 80.907 185.798,80.780 187.835,80.780 190.111 C 80.780 192.388,80.907 194.425,81.068 194.726 C 81.520 195.569,110.681 195.569,111.132 194.726 C 111.552 193.941,111.512 185.718,111.086 185.292 C 110.428 184.634,81.425 184.831,81.068 185.497 M80.914 203.969 C 80.829 204.314,80.796 206.539,80.839 208.914 L 80.919 213.231 95.943 213.303 C 107.778 213.360,111.014 213.301,111.189 213.025 C 111.563 212.437,111.470 204.061,111.086 203.677 C 110.835 203.425,107.083 203.343,95.911 203.343 L 81.069 203.343 80.914 203.969 " stroke="none" fill="#ec4c54" fill-rule="evenodd"></path><path id="path3" d="M197.841 0.466 L 197.214 0.904 197.214 20.470 L 197.214 40.035 196.556 40.700 C 196.193 41.066,195.809 41.647,195.701 41.992 C 195.594 42.336,195.404 42.618,195.280 42.618 C 195.155 42.618,194.898 42.994,194.708 43.454 C 194.517 43.914,194.266 44.290,194.150 44.290 C 194.034 44.290,193.784 44.666,193.593 45.125 C 193.403 45.585,193.152 45.961,193.036 45.961 C 192.920 45.961,192.661 46.368,192.460 46.866 C 192.259 47.364,191.930 47.872,191.729 47.994 C 191.529 48.117,191.365 48.384,191.365 48.587 C 191.365 48.790,191.188 49.103,190.973 49.282 C 190.757 49.461,190.375 50.041,190.124 50.570 C 189.873 51.099,189.548 51.532,189.402 51.532 C 189.256 51.532,189.136 51.698,189.136 51.900 C 189.136 52.103,188.764 52.761,188.309 53.363 C 187.853 53.964,187.477 54.600,187.473 54.775 C 187.469 54.950,187.277 55.166,187.047 55.254 C 186.818 55.342,186.630 55.552,186.630 55.720 C 186.630 55.888,186.316 56.437,185.933 56.939 C 185.550 57.441,185.237 57.997,185.237 58.174 C 185.237 58.351,185.111 58.496,184.958 58.496 C 184.805 58.496,184.680 58.624,184.680 58.781 C 184.680 59.046,183.280 61.252,182.298 62.535 C 182.063 62.841,181.800 63.374,181.713 63.719 C 181.626 64.063,181.440 64.345,181.300 64.345 C 181.160 64.345,180.926 64.659,180.780 65.042 C 180.634 65.425,180.410 65.738,180.282 65.738 C 180.153 65.738,179.876 66.177,179.666 66.713 C 179.455 67.249,179.175 67.688,179.042 67.688 C 178.910 67.688,178.670 68.064,178.510 68.524 C 178.350 68.983,178.124 69.359,178.009 69.359 C 177.895 69.359,177.574 69.861,177.298 70.474 C 177.022 71.086,176.705 71.588,176.593 71.588 C 176.482 71.588,176.235 71.964,176.045 72.423 C 175.854 72.883,175.601 73.259,175.481 73.259 C 175.361 73.259,175.132 73.635,174.972 74.095 C 174.812 74.554,174.572 74.930,174.440 74.930 C 174.307 74.930,174.027 75.369,173.816 75.905 C 173.606 76.442,173.329 76.880,173.200 76.880 C 173.072 76.880,172.848 77.194,172.702 77.577 C 172.556 77.960,172.332 78.273,172.204 78.273 C 172.075 78.273,171.798 78.712,171.588 79.248 C 171.377 79.784,171.118 80.223,171.010 80.223 C 170.903 80.223,170.607 80.662,170.353 81.198 C 170.098 81.734,169.794 82.173,169.677 82.173 C 169.559 82.173,169.293 82.606,169.085 83.136 C 168.877 83.666,168.552 84.159,168.363 84.231 C 168.174 84.304,167.937 84.738,167.837 85.195 C 167.736 85.652,167.474 86.095,167.253 86.180 C 167.033 86.264,166.852 86.484,166.852 86.667 C 166.852 86.851,166.661 87.199,166.426 87.442 C 165.750 88.143,164.356 90.356,164.350 90.738 C 164.348 90.930,164.226 91.086,164.080 91.086 C 163.934 91.086,163.596 91.556,163.329 92.131 C 163.062 92.705,162.680 93.276,162.480 93.398 C 162.280 93.521,162.117 93.797,162.117 94.011 C 162.117 94.226,161.953 94.502,161.752 94.624 C 161.552 94.747,161.223 95.254,161.022 95.752 C 160.821 96.250,160.562 96.657,160.446 96.657 C 160.330 96.657,160.079 97.033,159.889 97.493 C 159.698 97.953,159.441 98.329,159.316 98.329 C 159.192 98.329,159.011 98.579,158.914 98.884 C 158.817 99.190,158.585 99.597,158.399 99.789 C 158.015 100.185,156.511 102.671,156.207 103.412 C 156.097 103.680,155.901 103.900,155.771 103.900 C 155.642 103.900,155.366 104.333,155.158 104.863 C 154.950 105.393,154.613 105.890,154.409 105.969 C 154.206 106.047,154.039 106.294,154.039 106.517 C 154.039 106.741,153.882 107.091,153.691 107.296 C 153.050 107.980,151.532 110.255,151.532 110.531 C 151.532 110.681,151.356 110.872,151.140 110.954 C 150.925 111.037,150.665 111.488,150.562 111.957 C 150.459 112.426,150.227 112.905,150.047 113.021 C 149.868 113.136,149.533 113.603,149.303 114.058 C 149.074 114.513,148.698 115.100,148.468 115.362 C 147.591 116.361,147.341 116.714,147.029 117.399 C 146.852 117.788,146.625 118.106,146.525 118.106 C 146.425 118.106,146.171 118.545,145.961 119.081 C 145.751 119.617,145.473 120.056,145.343 120.056 C 145.214 120.056,145.031 120.275,144.936 120.543 C 144.842 120.811,144.488 121.407,144.149 121.866 C 143.811 122.326,143.445 122.984,143.336 123.329 C 143.227 123.673,143.036 123.955,142.912 123.955 C 142.788 123.955,142.530 124.331,142.340 124.791 C 142.149 125.251,141.899 125.627,141.783 125.627 C 141.667 125.627,141.416 126.003,141.226 126.462 C 141.035 126.922,140.777 127.298,140.653 127.298 C 140.528 127.298,140.267 127.737,140.073 128.273 C 139.880 128.809,139.618 129.248,139.491 129.248 C 139.365 129.248,139.143 129.561,138.997 129.944 C 138.852 130.327,138.627 130.641,138.499 130.641 C 138.371 130.641,138.093 131.079,137.883 131.616 C 137.673 132.152,137.398 132.591,137.272 132.591 C 137.146 132.591,136.842 133.092,136.597 133.705 C 136.352 134.318,136.048 134.819,135.922 134.819 C 135.795 134.819,135.613 135.069,135.516 135.374 C 135.419 135.680,135.191 136.089,135.010 136.283 C 134.218 137.132,132.869 139.265,132.869 139.669 C 132.869 139.913,132.744 140.111,132.591 140.111 C 132.436 140.111,132.312 140.854,132.312 141.783 C 132.312 142.711,132.436 143.454,132.591 143.454 C 132.744 143.454,132.869 143.611,132.869 143.803 C 132.869 143.995,133.267 144.528,133.754 144.987 L 134.638 145.822 200.000 145.822 L 265.362 145.822 266.246 144.987 C 266.733 144.528,267.131 143.995,267.131 143.803 C 267.131 143.611,267.256 143.454,267.409 143.454 C 267.564 143.454,267.688 142.711,267.688 141.783 C 267.688 140.864,267.575 140.111,267.437 140.111 C 267.299 140.111,267.054 139.735,266.894 139.276 C 266.734 138.816,266.486 138.440,266.344 138.440 C 266.201 138.440,265.929 138.064,265.738 137.604 C 265.548 137.145,265.284 136.769,265.153 136.769 C 265.021 136.769,264.834 136.454,264.737 136.069 C 264.641 135.684,264.412 135.277,264.230 135.164 C 264.047 135.051,263.679 134.488,263.412 133.914 C 263.145 133.339,262.807 132.869,262.661 132.869 C 262.515 132.869,262.396 132.752,262.396 132.609 C 262.396 132.222,260.641 129.422,260.238 129.164 C 260.046 129.042,259.889 128.756,259.889 128.529 C 259.889 128.302,259.722 128.052,259.518 127.974 C 259.314 127.896,258.978 127.398,258.770 126.869 C 258.562 126.339,258.290 125.905,258.165 125.905 C 258.041 125.905,257.939 125.777,257.939 125.620 C 257.939 125.361,256.388 122.901,255.710 122.086 C 255.556 121.900,255.284 121.430,255.107 121.041 C 254.930 120.652,254.692 120.334,254.579 120.334 C 254.465 120.334,254.241 119.958,254.081 119.499 C 253.921 119.039,253.681 118.663,253.548 118.663 C 253.416 118.663,253.135 118.224,252.925 117.688 C 252.714 117.152,252.437 116.713,252.309 116.713 C 252.180 116.713,251.956 116.400,251.811 116.017 C 251.665 115.634,251.443 115.320,251.316 115.320 C 251.190 115.320,250.928 114.882,250.734 114.345 C 250.540 113.809,250.284 113.370,250.164 113.370 C 250.044 113.370,249.719 112.869,249.443 112.256 C 249.167 111.643,248.849 111.142,248.738 111.142 C 248.627 111.142,248.380 110.766,248.189 110.306 C 247.999 109.847,247.733 109.471,247.599 109.471 C 247.464 109.471,247.354 109.326,247.354 109.149 C 247.354 108.972,247.040 108.416,246.657 107.914 C 246.274 107.412,245.961 106.873,245.961 106.718 C 245.961 106.562,245.804 106.334,245.612 106.212 C 245.421 106.089,245.076 105.613,244.846 105.153 C 244.617 104.694,244.335 104.192,244.219 104.039 C 243.390 102.939,242.061 100.799,242.061 100.564 C 242.061 100.407,241.933 100.279,241.776 100.279 C 241.619 100.279,241.371 99.965,241.226 99.582 C 241.080 99.199,240.842 98.886,240.698 98.886 C 240.553 98.886,240.350 98.501,240.247 98.031 C 240.143 97.561,239.883 97.109,239.667 97.027 C 239.452 96.944,239.276 96.754,239.276 96.603 C 239.276 96.327,237.758 94.053,237.117 93.368 C 236.925 93.164,236.769 92.861,236.769 92.694 C 236.769 92.528,236.455 91.982,236.072 91.479 C 235.689 90.977,235.376 90.429,235.376 90.261 C 235.376 90.092,235.209 89.891,235.006 89.813 C 234.802 89.734,234.465 89.237,234.257 88.707 C 234.049 88.177,233.793 87.744,233.687 87.744 C 233.581 87.744,233.338 87.368,233.148 86.908 C 232.957 86.448,232.707 86.072,232.591 86.072 C 232.474 86.072,232.224 85.696,232.033 85.237 C 231.843 84.777,231.586 84.401,231.461 84.401 C 231.337 84.401,231.156 84.151,231.059 83.846 C 230.962 83.540,230.729 83.133,230.542 82.940 C 230.355 82.748,229.981 82.120,229.712 81.546 C 229.442 80.971,229.102 80.501,228.956 80.501 C 228.810 80.501,228.691 80.357,228.691 80.179 C 228.691 80.002,228.377 79.447,227.994 78.945 C 227.611 78.442,227.298 77.904,227.298 77.748 C 227.298 77.592,227.134 77.365,226.934 77.242 C 226.733 77.120,226.404 76.612,226.203 76.114 C 226.002 75.616,225.743 75.209,225.627 75.209 C 225.511 75.209,225.260 74.833,225.070 74.373 C 224.879 73.914,224.613 73.538,224.478 73.538 C 224.343 73.538,224.015 73.036,223.750 72.423 C 223.484 71.811,223.171 71.309,223.054 71.309 C 222.937 71.309,222.841 71.164,222.841 70.987 C 222.841 70.810,222.528 70.255,222.145 69.752 C 221.762 69.250,221.448 68.702,221.448 68.534 C 221.448 68.365,221.260 68.155,221.031 68.067 C 220.801 67.979,220.613 67.756,220.613 67.571 C 220.613 67.387,220.393 66.993,220.125 66.696 C 219.857 66.399,219.450 65.780,219.221 65.320 C 218.991 64.861,218.646 64.384,218.454 64.262 C 218.263 64.139,218.106 63.864,218.106 63.649 C 218.106 63.434,217.949 63.159,217.757 63.036 C 217.565 62.914,217.221 62.437,216.991 61.978 C 216.531 61.056,215.487 59.381,215.045 58.854 C 214.888 58.669,214.616 58.199,214.439 57.810 C 214.262 57.421,214.027 57.103,213.917 57.103 C 213.807 57.103,213.561 56.727,213.370 56.267 C 213.180 55.808,212.926 55.432,212.807 55.432 C 212.687 55.432,212.458 55.056,212.298 54.596 C 212.138 54.136,211.898 53.760,211.766 53.760 C 211.633 53.760,211.352 53.322,211.142 52.786 C 210.932 52.249,210.654 51.811,210.524 51.811 C 210.394 51.811,210.198 51.591,210.089 51.323 C 209.850 50.743,208.310 48.110,208.091 47.911 C 207.676 47.532,206.128 45.135,206.128 44.871 C 206.128 44.704,206.003 44.568,205.850 44.568 C 205.696 44.568,205.571 44.423,205.571 44.246 C 205.571 44.069,205.258 43.514,204.875 43.011 C 204.492 42.509,204.178 41.971,204.178 41.815 C 204.178 41.659,204.021 41.432,203.830 41.309 C 202.814 40.660,202.785 40.114,202.715 20.277 C 202.648 1.227,202.636 0.852,202.089 0.439 C 201.340 -0.127,198.667 -0.110,197.841 0.466 M200.557 52.925 C 200.747 53.384,201.001 53.760,201.121 53.760 C 201.240 53.760,201.469 54.136,201.630 54.596 C 201.790 55.056,202.029 55.432,202.162 55.432 C 202.295 55.432,202.575 55.870,202.786 56.407 C 202.996 56.943,203.264 57.382,203.382 57.382 C 203.499 57.382,203.816 57.852,204.085 58.426 C 204.354 59.001,204.728 59.628,204.915 59.821 C 205.103 60.013,205.335 60.420,205.432 60.726 C 205.529 61.031,205.710 61.281,205.835 61.281 C 205.959 61.281,206.216 61.657,206.407 62.117 C 206.597 62.577,206.848 62.953,206.964 62.953 C 207.080 62.953,207.331 63.329,207.521 63.788 C 207.711 64.248,207.962 64.624,208.078 64.624 C 208.194 64.624,208.453 65.031,208.655 65.529 C 208.856 66.027,209.184 66.535,209.385 66.657 C 209.585 66.780,209.749 67.046,209.749 67.250 C 209.749 67.453,209.926 67.766,210.141 67.945 C 210.357 68.124,210.739 68.704,210.990 69.233 C 211.241 69.762,211.566 70.195,211.712 70.195 C 211.858 70.195,211.978 70.329,211.978 70.493 C 211.978 70.657,212.354 71.338,212.813 72.006 C 213.273 72.674,213.649 73.341,213.649 73.488 C 213.649 73.636,213.837 73.829,214.067 73.917 C 214.589 74.117,214.627 75.729,214.114 75.926 C 213.911 76.004,213.574 76.501,213.366 77.031 C 213.158 77.561,212.906 77.994,212.806 77.994 C 212.706 77.994,212.479 78.313,212.302 78.701 C 212.125 79.090,211.847 79.560,211.684 79.746 C 211.521 79.932,211.113 80.514,210.777 81.040 C 210.442 81.567,209.948 82.319,209.679 82.712 C 209.411 83.105,209.002 83.834,208.770 84.331 C 208.539 84.829,208.256 85.237,208.142 85.237 C 208.029 85.237,207.761 85.632,207.547 86.114 C 207.333 86.597,206.958 87.203,206.713 87.461 C 206.468 87.719,206.113 88.170,205.924 88.464 C 205.736 88.757,205.254 89.490,204.853 90.093 C 204.453 90.696,204.015 91.479,203.880 91.834 C 203.745 92.189,203.530 92.479,203.402 92.479 C 203.273 92.479,202.996 92.918,202.786 93.454 C 202.575 93.990,202.298 94.429,202.170 94.429 C 202.041 94.429,201.817 94.742,201.671 95.125 C 201.526 95.508,201.301 95.822,201.173 95.822 C 201.045 95.822,200.767 96.260,200.557 96.797 C 200.347 97.333,200.093 97.772,199.993 97.772 C 199.893 97.772,199.666 98.090,199.489 98.478 C 199.312 98.867,199.039 99.337,198.884 99.523 C 198.266 100.260,196.020 103.798,195.796 104.387 C 195.664 104.732,195.452 105.014,195.324 105.014 C 195.195 105.014,194.920 105.447,194.712 105.977 C 194.504 106.507,194.167 107.005,193.964 107.083 C 193.760 107.161,193.593 107.375,193.593 107.558 C 193.593 107.742,193.402 108.091,193.167 108.333 C 192.491 109.034,191.097 111.247,191.091 111.630 C 191.089 111.821,190.967 111.978,190.821 111.978 C 190.675 111.978,190.337 112.448,190.070 113.022 C 189.803 113.597,189.421 114.167,189.221 114.290 C 189.021 114.412,188.858 114.698,188.858 114.925 C 188.858 115.152,188.691 115.402,188.488 115.480 C 188.284 115.558,187.947 116.056,187.739 116.585 C 187.531 117.115,187.274 117.549,187.168 117.549 C 187.062 117.549,186.820 117.925,186.630 118.384 C 186.439 118.844,186.193 119.220,186.083 119.220 C 185.973 119.220,185.738 119.538,185.561 119.927 C 185.384 120.316,185.112 120.786,184.955 120.971 C 184.383 121.652,183.227 123.519,182.989 124.146 C 182.854 124.501,182.639 124.791,182.510 124.791 C 182.382 124.791,182.105 125.230,181.894 125.766 C 181.684 126.302,181.407 126.741,181.278 126.741 C 181.150 126.741,180.926 127.054,180.780 127.437 C 180.634 127.820,180.387 128.134,180.230 128.134 C 180.073 128.134,179.941 128.290,179.937 128.482 C 179.932 128.673,179.556 129.322,179.101 129.924 C 178.646 130.526,178.273 131.184,178.273 131.387 C 178.273 131.589,178.154 131.755,178.007 131.755 C 177.861 131.755,177.537 132.188,177.285 132.717 C 177.034 133.246,176.652 133.826,176.437 134.005 C 176.221 134.184,176.045 134.507,176.045 134.723 C 176.045 134.938,175.878 135.179,175.674 135.257 C 175.470 135.335,175.134 135.833,174.926 136.363 L 174.548 137.326 159.837 137.326 C 146.946 137.326,145.125 137.274,145.125 136.908 C 145.125 136.678,145.257 136.490,145.418 136.490 C 145.580 136.490,145.843 136.114,146.003 135.655 C 146.163 135.195,146.387 134.819,146.501 134.819 C 146.614 134.819,146.852 134.501,147.029 134.112 C 147.206 133.723,147.479 133.253,147.635 133.068 C 148.207 132.387,149.363 130.520,149.602 129.893 C 149.737 129.538,149.952 129.248,150.080 129.248 C 150.209 129.248,150.486 128.809,150.696 128.273 C 150.907 127.737,151.184 127.298,151.312 127.298 C 151.441 127.298,151.665 126.985,151.811 126.602 C 151.956 126.219,152.180 125.905,152.309 125.905 C 152.437 125.905,152.714 125.467,152.925 124.930 C 153.135 124.394,153.394 123.955,153.500 123.955 C 153.606 123.955,153.849 123.579,154.039 123.120 C 154.229 122.660,154.480 122.284,154.596 122.284 C 154.712 122.284,154.959 121.917,155.145 121.469 C 155.331 121.020,155.715 120.443,155.999 120.186 C 156.282 119.929,156.594 119.356,156.692 118.913 C 156.789 118.469,156.987 118.106,157.132 118.106 C 157.277 118.106,157.515 117.792,157.660 117.409 C 157.806 117.026,158.023 116.713,158.142 116.713 C 158.262 116.713,158.535 116.318,158.748 115.836 C 158.962 115.353,159.369 114.726,159.652 114.443 C 159.935 114.159,160.167 113.753,160.167 113.540 C 160.167 113.326,160.355 113.079,160.585 112.991 C 160.815 112.903,161.003 112.693,161.003 112.525 C 161.003 112.357,161.316 111.808,161.699 111.306 C 162.082 110.804,162.396 110.248,162.396 110.071 C 162.396 109.894,162.515 109.749,162.661 109.749 C 162.807 109.749,163.147 109.279,163.416 108.705 C 163.686 108.130,164.060 107.503,164.247 107.310 C 164.434 107.118,164.667 106.711,164.764 106.405 C 164.861 106.100,165.042 105.850,165.166 105.850 C 165.290 105.850,165.548 105.474,165.738 105.014 C 165.929 104.554,166.179 104.178,166.295 104.178 C 166.411 104.178,166.662 103.802,166.852 103.343 C 167.043 102.883,167.285 102.507,167.391 102.507 C 167.497 102.507,167.756 102.068,167.967 101.532 C 168.177 100.996,168.455 100.557,168.584 100.557 C 168.714 100.557,168.901 100.338,168.999 100.070 C 169.098 99.802,169.456 99.206,169.794 98.747 C 170.132 98.287,170.495 97.629,170.599 97.284 C 170.704 96.939,170.891 96.657,171.016 96.657 C 171.140 96.657,171.397 96.281,171.588 95.822 C 171.778 95.362,172.036 94.986,172.160 94.986 C 172.284 94.986,172.465 94.736,172.562 94.431 C 172.659 94.125,172.887 93.718,173.068 93.525 C 173.673 92.884,174.930 90.921,174.930 90.618 C 174.930 90.454,175.107 90.172,175.323 89.993 C 175.538 89.814,175.920 89.235,176.171 88.706 C 176.422 88.177,176.747 87.744,176.893 87.744 C 177.039 87.744,177.159 87.610,177.159 87.446 C 177.159 87.282,177.535 86.601,177.994 85.933 C 178.454 85.265,178.830 84.584,178.830 84.421 C 178.830 84.257,178.959 84.123,179.117 84.123 C 179.275 84.123,179.486 83.903,179.584 83.635 C 179.683 83.367,180.055 82.760,180.411 82.286 C 180.767 81.812,181.058 81.279,181.058 81.102 C 181.058 80.925,181.184 80.780,181.337 80.780 C 181.490 80.780,181.616 80.652,181.616 80.495 C 181.616 80.235,183.166 77.776,183.844 76.960 C 183.999 76.775,184.270 76.305,184.447 75.916 C 184.624 75.527,184.862 75.209,184.976 75.209 C 185.089 75.209,185.313 74.833,185.474 74.373 C 185.634 73.914,185.873 73.538,186.006 73.538 C 186.139 73.538,186.417 73.104,186.625 72.574 C 186.833 72.044,187.170 71.547,187.373 71.469 C 187.577 71.391,187.744 71.203,187.744 71.052 C 187.744 70.789,188.817 69.034,189.409 68.329 C 189.563 68.145,189.901 67.550,190.161 67.006 C 190.420 66.462,190.719 66.017,190.826 66.017 C 190.932 66.017,191.175 65.641,191.365 65.181 C 191.555 64.721,191.798 64.345,191.904 64.345 C 192.010 64.345,192.269 63.907,192.479 63.370 C 192.690 62.834,192.967 62.396,193.095 62.396 C 193.223 62.396,193.448 62.082,193.593 61.699 C 193.739 61.316,193.956 61.003,194.076 61.003 C 194.195 61.003,194.468 60.608,194.681 60.125 C 194.895 59.643,195.302 59.016,195.585 58.732 C 195.868 58.449,196.100 58.029,196.100 57.799 C 196.100 57.570,196.220 57.382,196.366 57.382 C 196.512 57.382,196.850 56.912,197.117 56.337 C 197.384 55.763,197.766 55.192,197.965 55.070 C 198.165 54.947,198.329 54.661,198.329 54.434 C 198.329 54.207,198.509 53.952,198.729 53.868 C 198.950 53.783,199.211 53.348,199.309 52.902 C 199.539 51.852,200.117 51.863,200.557 52.925 M220.830 84.401 C 220.960 84.401,221.238 84.840,221.448 85.376 C 221.659 85.912,221.939 86.351,222.072 86.351 C 222.205 86.351,222.444 86.727,222.604 87.187 C 222.765 87.646,222.990 88.022,223.105 88.022 C 223.220 88.022,223.540 88.524,223.816 89.136 C 224.092 89.749,224.410 90.251,224.521 90.251 C 224.632 90.251,224.879 90.627,225.070 91.086 C 225.260 91.546,225.514 91.922,225.633 91.922 C 225.753 91.922,225.982 92.298,226.142 92.758 C 226.302 93.217,226.542 93.593,226.674 93.593 C 226.807 93.593,227.088 94.032,227.298 94.568 C 227.508 95.104,227.786 95.543,227.914 95.543 C 228.042 95.543,228.267 95.857,228.412 96.240 C 228.558 96.623,228.792 96.936,228.932 96.936 C 229.073 96.936,229.264 97.241,229.357 97.613 C 229.451 97.985,229.699 98.461,229.909 98.671 C 230.118 98.881,230.497 99.454,230.751 99.944 C 231.005 100.434,231.311 100.836,231.431 100.836 C 231.552 100.836,231.823 101.274,232.033 101.811 C 232.244 102.347,232.516 102.786,232.639 102.786 C 232.761 102.786,233.056 103.193,233.293 103.691 C 234.102 105.387,234.570 106.128,234.834 106.128 C 234.979 106.128,235.097 106.293,235.097 106.493 C 235.097 106.694,235.356 107.136,235.672 107.475 C 235.987 107.814,236.428 108.527,236.650 109.059 C 236.873 109.592,237.155 110.028,237.278 110.028 C 237.400 110.028,237.673 110.467,237.883 111.003 C 238.093 111.539,238.371 111.978,238.499 111.978 C 238.627 111.978,238.852 112.291,238.997 112.674 C 239.143 113.057,239.365 113.370,239.491 113.370 C 239.618 113.370,239.880 113.809,240.073 114.345 C 240.267 114.882,240.528 115.320,240.653 115.320 C 240.777 115.320,241.035 115.696,241.226 116.156 C 241.416 116.616,241.673 116.992,241.798 116.992 C 241.922 116.992,242.103 117.242,242.200 117.547 C 242.297 117.853,242.542 118.268,242.744 118.470 C 242.946 118.672,243.407 119.378,243.770 120.040 C 244.132 120.702,244.592 121.540,244.792 121.903 C 244.992 122.266,245.251 122.563,245.367 122.563 C 245.483 122.563,245.751 123.001,245.961 123.538 C 246.171 124.074,246.452 124.513,246.585 124.513 C 246.717 124.513,246.957 124.889,247.117 125.348 C 247.277 125.808,247.513 126.184,247.641 126.184 C 247.769 126.184,247.948 126.419,248.039 126.707 C 248.131 126.995,248.515 127.590,248.893 128.030 C 249.272 128.470,249.582 128.987,249.582 129.178 C 249.582 129.370,249.708 129.526,249.862 129.526 C 250.015 129.526,250.358 130.028,250.624 130.641 C 250.889 131.253,251.202 131.755,251.319 131.755 C 251.436 131.755,251.532 131.891,251.532 132.058 C 251.532 132.352,253.011 134.595,253.673 135.304 C 253.854 135.499,254.082 135.908,254.179 136.213 C 254.276 136.519,254.472 136.769,254.615 136.769 C 254.758 136.769,254.875 136.894,254.875 137.047 C 254.875 137.230,248.432 137.326,236.103 137.326 L 217.331 137.326 216.885 136.212 C 216.640 135.599,216.313 135.097,216.158 135.097 C 216.004 135.097,215.877 134.953,215.877 134.776 C 215.877 134.599,215.586 134.066,215.230 133.592 C 214.874 133.118,214.502 132.510,214.403 132.242 C 214.304 131.974,214.094 131.755,213.936 131.755 C 213.778 131.755,213.649 131.621,213.649 131.457 C 213.649 131.293,213.273 130.612,212.813 129.944 C 212.354 129.276,211.978 128.596,211.978 128.432 C 211.978 128.268,211.849 128.134,211.692 128.134 C 211.535 128.134,211.288 127.820,211.142 127.437 C 210.996 127.054,210.779 126.741,210.660 126.741 C 210.540 126.741,210.265 126.334,210.047 125.836 C 209.616 124.849,208.414 122.909,207.888 122.352 C 207.706 122.160,207.478 121.752,207.381 121.447 C 207.284 121.141,207.096 120.891,206.963 120.891 C 206.830 120.891,206.563 120.453,206.369 119.916 C 206.175 119.380,205.913 118.942,205.787 118.942 C 205.661 118.942,205.438 118.628,205.292 118.245 C 205.147 117.862,204.923 117.549,204.794 117.549 C 204.666 117.549,204.389 117.110,204.178 116.574 C 203.968 116.038,203.690 115.599,203.560 115.599 C 203.431 115.599,203.242 115.380,203.141 115.111 C 203.040 114.843,202.612 114.078,202.191 113.411 C 201.445 112.230,201.459 111.574,202.243 110.864 C 202.328 110.787,202.615 110.254,202.883 109.680 C 203.150 109.105,203.488 108.635,203.634 108.635 C 203.780 108.635,203.900 108.478,203.900 108.287 C 203.900 108.095,204.210 107.579,204.588 107.139 C 204.967 106.699,205.351 106.103,205.443 105.816 C 205.534 105.528,205.713 105.292,205.841 105.292 C 205.969 105.292,206.205 104.916,206.365 104.457 C 206.525 103.997,206.765 103.621,206.897 103.621 C 207.030 103.621,207.308 103.188,207.516 102.658 C 207.724 102.128,208.061 101.631,208.265 101.552 C 208.468 101.474,208.635 101.273,208.635 101.104 C 208.635 100.936,208.948 100.388,209.331 99.885 C 209.714 99.383,210.028 98.834,210.028 98.664 C 210.028 98.495,210.192 98.256,210.392 98.134 C 210.593 98.011,210.921 97.503,211.123 97.006 C 211.324 96.508,211.590 96.100,211.714 96.100 C 211.838 96.100,212.020 95.850,212.116 95.545 C 212.213 95.239,212.441 94.830,212.623 94.636 C 213.284 93.927,214.763 91.684,214.763 91.389 C 214.763 91.223,214.865 91.086,214.990 91.086 C 215.114 91.086,215.388 90.648,215.599 90.111 C 215.809 89.575,216.077 89.136,216.195 89.136 C 216.312 89.136,216.629 88.671,216.900 88.101 C 217.170 87.532,217.583 86.857,217.818 86.602 C 218.582 85.773,219.220 84.851,219.220 84.577 C 219.220 83.908,220.183 83.342,220.395 83.886 C 220.505 84.169,220.701 84.401,220.830 84.401 M11.978 165.978 C 11.978 166.110,11.357 166.291,10.599 166.381 C 9.147 166.553,6.128 167.825,6.128 168.265 C 6.128 168.407,5.971 168.524,5.780 168.524 C 5.588 168.525,4.993 168.900,4.457 169.359 C 3.921 169.818,3.388 170.194,3.273 170.194 C 3.158 170.195,3.059 170.352,3.053 170.543 C 3.047 170.735,2.670 171.325,2.217 171.856 C 1.764 172.386,1.393 172.982,1.393 173.179 C 1.393 173.376,1.285 173.538,1.152 173.538 C 0.716 173.538,0.146 176.975,0.160 179.526 C 0.173 182.022,0.689 184.958,1.115 184.958 C 1.238 184.958,1.469 185.334,1.630 185.794 C 1.790 186.253,2.053 186.630,2.214 186.630 C 2.375 186.630,2.507 186.786,2.507 186.978 C 2.507 187.675,6.439 191.365,7.183 191.365 C 7.336 191.365,7.527 191.537,7.608 191.747 C 7.688 191.957,8.108 192.218,8.540 192.326 C 8.972 192.435,9.390 192.618,9.468 192.733 C 9.663 193.021,12.518 194.344,13.449 194.578 C 13.865 194.682,14.206 194.870,14.206 194.995 C 14.206 195.119,14.659 195.371,15.213 195.554 C 15.767 195.737,16.444 196.091,16.717 196.341 C 16.990 196.592,17.577 197.115,18.020 197.504 C 20.194 199.413,19.558 203.900,17.114 203.900 C 16.893 203.900,16.713 204.025,16.713 204.178 C 16.713 204.518,14.423 204.552,14.053 204.218 C 13.907 204.086,13.005 203.818,12.047 203.623 C 11.090 203.427,10.306 203.168,10.306 203.048 C 10.306 202.927,9.868 202.684,9.331 202.507 C 8.795 202.330,8.357 202.078,8.357 201.947 C 8.357 201.816,8.121 201.634,7.833 201.543 C 7.544 201.451,7.024 201.129,6.676 200.827 C 5.287 199.623,3.071 200.574,2.634 202.563 C 2.540 202.992,2.363 203.343,2.240 203.343 C 2.118 203.343,1.862 203.719,1.671 204.178 C 1.481 204.638,1.240 205.014,1.135 205.014 C 0.038 205.014,-0.076 209.071,1.010 209.484 C 1.374 209.622,1.671 209.855,1.671 210.001 C 1.671 210.335,4.340 211.871,5.362 212.126 C 5.783 212.231,6.128 212.411,6.128 212.527 C 6.128 212.643,6.912 212.901,7.869 213.101 C 8.827 213.301,9.699 213.600,9.809 213.766 C 10.096 214.201,20.842 214.180,21.111 213.744 C 21.221 213.567,21.786 213.332,22.368 213.223 C 22.950 213.114,23.576 212.878,23.760 212.698 C 23.944 212.519,24.503 212.205,25.002 212.001 C 26.117 211.545,29.269 208.523,29.819 207.382 C 30.041 206.922,30.364 206.395,30.537 206.211 C 30.711 206.027,30.941 205.401,31.050 204.819 C 31.160 204.238,31.392 203.673,31.568 203.565 C 31.962 203.321,31.986 196.984,31.593 196.706 C 31.447 196.603,31.171 195.911,30.978 195.169 C 30.786 194.427,30.444 193.635,30.217 193.408 C 29.990 193.182,29.805 192.876,29.805 192.728 C 29.805 192.348,26.066 188.579,25.688 188.579 C 25.516 188.579,25.276 188.423,25.153 188.231 C 25.031 188.040,24.617 187.703,24.234 187.483 C 22.129 186.274,19.925 185.223,18.942 184.958 C 18.329 184.793,17.827 184.543,17.827 184.403 C 17.827 184.263,17.387 184.065,16.848 183.964 C 16.310 183.863,15.777 183.631,15.665 183.448 C 15.552 183.265,15.052 182.950,14.554 182.749 C 14.056 182.548,13.649 182.294,13.649 182.184 C 13.649 182.074,13.336 181.841,12.953 181.666 C 12.570 181.492,12.256 181.165,12.256 180.939 C 12.256 180.714,12.053 180.415,11.804 180.276 C 10.389 179.484,11.851 176.367,13.875 175.859 C 14.729 175.644,17.749 175.918,18.186 176.250 C 18.372 176.391,19.150 176.735,19.916 177.015 C 20.682 177.295,21.402 177.678,21.515 177.867 C 21.627 178.056,22.038 178.291,22.427 178.388 C 22.816 178.486,23.381 178.813,23.684 179.116 C 24.494 179.926,27.298 179.695,27.298 178.818 C 27.298 178.651,27.611 178.104,27.994 177.601 C 28.377 177.099,28.691 176.544,28.691 176.366 C 28.691 176.189,28.814 176.045,28.966 176.045 C 29.117 176.045,29.426 175.601,29.652 175.060 C 29.878 174.518,30.256 173.883,30.491 173.647 C 31.484 172.654,30.395 170.318,28.687 169.776 C 28.383 169.679,28.134 169.493,28.134 169.363 C 28.134 169.232,27.749 169.041,27.279 168.937 C 26.809 168.834,26.363 168.588,26.286 168.389 C 26.210 168.191,25.780 167.955,25.330 167.866 C 24.881 167.776,23.940 167.441,23.241 167.123 C 22.541 166.804,21.350 166.470,20.595 166.380 C 19.839 166.291,19.220 166.110,19.220 165.978 C 19.220 165.846,17.591 165.738,15.599 165.738 C 13.607 165.738,11.978 165.846,11.978 165.978 M280.677 166.365 C 280.457 167.187,280.450 212.356,280.670 212.930 C 280.925 213.594,291.220 213.594,291.474 212.930 C 291.567 212.688,291.643 206.714,291.643 199.655 C 291.643 186.839,291.644 186.822,292.201 187.326 C 292.507 187.603,292.758 187.936,292.758 188.065 C 292.758 188.195,292.977 188.532,293.245 188.816 C 293.513 189.099,293.975 189.671,294.272 190.087 C 294.569 190.503,295.036 191.101,295.309 191.416 C 295.582 191.731,295.880 192.224,295.972 192.512 C 296.063 192.800,296.258 193.036,296.404 193.036 C 296.551 193.036,296.792 193.353,296.939 193.740 C 297.086 194.127,297.396 194.516,297.628 194.605 C 297.860 194.694,298.050 194.910,298.050 195.086 C 298.051 195.261,298.364 195.768,298.747 196.213 C 299.130 196.658,299.443 197.110,299.443 197.217 C 299.443 197.324,299.725 197.733,300.070 198.125 C 301.251 199.470,301.942 200.418,301.946 200.699 C 301.948 200.854,302.201 201.137,302.507 201.328 C 302.813 201.519,303.064 201.863,303.064 202.091 C 303.064 202.320,303.193 202.507,303.351 202.507 C 303.509 202.507,303.719 202.726,303.817 202.994 C 303.914 203.263,304.255 203.803,304.574 204.196 C 304.893 204.589,305.404 205.266,305.710 205.701 C 306.017 206.136,306.487 206.723,306.755 207.006 C 307.023 207.289,307.242 207.620,307.242 207.740 C 307.242 207.861,307.613 208.394,308.067 208.924 C 308.520 209.455,308.896 209.983,308.902 210.097 C 308.909 210.212,309.105 210.526,309.338 210.794 C 310.746 212.409,311.142 212.918,311.142 213.113 C 311.142 214.078,318.718 214.809,320.729 214.037 C 321.309 213.814,321.414 167.486,320.836 166.908 C 320.196 166.268,310.390 166.454,310.038 167.113 C 309.852 167.460,309.749 171.952,309.749 179.778 C 309.749 192.392,309.660 193.281,308.635 190.808 C 308.454 190.370,308.129 189.944,307.913 189.862 C 307.697 189.779,307.521 189.524,307.521 189.294 C 307.521 189.065,307.270 188.743,306.964 188.579 C 306.657 188.415,306.407 188.125,306.407 187.935 C 306.407 187.745,306.187 187.385,305.919 187.136 C 305.651 186.887,305.118 186.221,304.735 185.655 C 304.352 185.089,303.757 184.365,303.412 184.046 C 303.068 183.726,302.786 183.296,302.786 183.089 C 302.786 182.882,302.602 182.642,302.378 182.556 C 302.154 182.470,301.900 182.175,301.812 181.899 C 301.669 181.449,301.027 180.616,299.855 179.364 C 299.629 179.121,299.443 178.781,299.443 178.608 C 299.443 178.434,299.192 178.158,298.886 177.994 C 298.579 177.830,298.327 177.544,298.324 177.358 C 298.321 177.172,298.008 176.724,297.627 176.364 C 297.247 176.003,296.936 175.537,296.936 175.329 C 296.936 175.120,296.685 174.816,296.379 174.652 C 296.072 174.488,295.822 174.198,295.822 174.008 C 295.822 173.817,295.602 173.458,295.334 173.209 C 295.066 172.960,294.533 172.293,294.150 171.727 C 293.767 171.161,293.235 170.494,292.967 170.245 C 292.698 169.996,292.479 169.678,292.479 169.538 C 292.479 169.398,292.197 169.000,291.852 168.654 C 291.508 168.307,290.805 167.510,290.291 166.881 L 289.357 165.738 285.101 165.738 C 280.923 165.738,280.842 165.750,280.677 166.365 M379.944 166.013 C 379.714 166.147,378.743 166.407,377.786 166.592 C 376.828 166.777,376.045 167.023,376.045 167.139 C 376.045 167.254,375.763 167.420,375.418 167.507 C 374.790 167.665,373.927 168.239,372.947 169.150 C 372.659 169.419,372.319 169.638,372.191 169.638 C 371.941 169.638,370.195 171.716,370.195 172.015 C 370.195 172.115,369.958 172.497,369.669 172.865 C 369.380 173.232,369.055 174.004,368.947 174.579 C 368.839 175.155,368.608 175.714,368.434 175.822 C 368.018 176.079,367.984 182.667,368.398 182.949 C 368.559 183.058,368.846 183.680,369.036 184.331 C 369.226 184.983,369.471 185.515,369.581 185.515 C 369.691 185.515,369.957 185.923,370.173 186.421 C 370.681 187.590,373.691 190.600,374.861 191.108 C 375.359 191.324,375.766 191.602,375.766 191.726 C 375.766 191.850,376.142 192.082,376.602 192.242 C 377.061 192.403,377.437 192.627,377.437 192.740 C 377.437 192.854,377.939 193.113,378.552 193.315 C 379.164 193.517,379.666 193.773,379.666 193.883 C 379.666 193.994,380.230 194.226,380.919 194.400 C 381.609 194.574,382.173 194.829,382.173 194.968 C 382.173 195.107,382.531 195.299,382.968 195.395 C 384.087 195.641,385.685 196.920,387.177 198.764 C 388.358 200.225,387.284 203.307,385.432 203.771 C 385.018 203.875,384.680 204.072,384.680 204.208 C 384.680 204.345,384.053 204.457,383.287 204.457 C 382.521 204.457,381.894 204.349,381.894 204.216 C 381.894 204.084,381.142 203.816,380.223 203.621 C 379.304 203.426,378.552 203.178,378.552 203.071 C 378.552 202.963,378.050 202.709,377.437 202.507 C 376.825 202.305,376.323 202.027,376.323 201.891 C 376.323 201.754,375.947 201.511,375.487 201.351 C 375.028 201.191,374.652 200.960,374.652 200.839 C 374.652 200.492,373.268 200.232,372.418 200.419 C 371.808 200.553,371.460 200.973,370.732 202.453 C 370.227 203.478,369.649 204.483,369.448 204.686 C 369.246 204.888,369.081 205.224,369.081 205.432 C 369.081 205.640,368.891 205.999,368.659 206.231 C 367.659 207.231,368.227 209.749,369.452 209.749 C 369.634 209.749,369.939 210.000,370.130 210.306 C 370.322 210.613,370.611 210.864,370.774 210.864 C 370.937 210.864,371.255 211.048,371.481 211.274 C 371.707 211.500,372.387 211.818,372.993 211.981 C 373.599 212.144,374.095 212.381,374.095 212.507 C 374.095 212.634,374.878 212.901,375.836 213.101 C 376.793 213.301,377.666 213.600,377.775 213.766 C 378.054 214.188,388.804 214.181,389.077 213.759 C 389.186 213.590,389.934 213.295,390.738 213.105 C 391.542 212.914,392.201 212.669,392.201 212.561 C 392.201 212.452,392.683 212.151,393.273 211.890 C 394.536 211.333,397.063 208.993,397.338 208.126 C 397.444 207.793,397.632 207.521,397.757 207.521 C 397.881 207.521,398.138 207.145,398.329 206.685 C 398.519 206.226,398.768 205.850,398.882 205.850 C 399.258 205.850,399.830 202.404,399.830 200.139 C 399.830 197.865,399.257 194.429,398.878 194.429 C 398.762 194.429,398.596 194.147,398.508 193.802 C 398.238 192.739,394.814 188.883,393.802 188.502 C 393.534 188.401,393.315 188.212,393.315 188.083 C 393.315 187.954,392.876 187.676,392.340 187.465 C 391.804 187.255,391.365 187.001,391.365 186.901 C 391.365 186.801,390.864 186.553,390.251 186.351 C 389.638 186.149,389.136 185.881,389.136 185.757 C 389.136 185.633,388.416 185.323,387.535 185.068 C 386.654 184.814,385.870 184.523,385.794 184.422 C 385.717 184.321,385.122 184.067,384.471 183.857 C 383.820 183.648,383.287 183.368,383.287 183.235 C 383.287 183.103,382.974 182.875,382.591 182.730 C 382.208 182.584,381.894 182.337,381.894 182.180 C 381.894 182.023,381.729 181.894,381.527 181.894 C 380.997 181.894,379.926 180.573,379.636 179.563 C 379.379 178.666,379.771 176.880,380.225 176.880 C 380.355 176.880,380.681 176.661,380.950 176.393 C 381.557 175.787,385.949 175.672,386.307 176.253 C 386.425 176.443,387.180 176.795,387.984 177.034 C 388.788 177.273,389.681 177.680,389.968 177.940 C 391.407 179.243,392.284 179.666,393.543 179.666 C 394.302 179.666,395.545 178.601,395.901 177.646 C 396.001 177.378,396.193 177.159,396.328 177.159 C 396.463 177.159,396.799 176.657,397.075 176.045 C 397.352 175.432,397.664 174.930,397.769 174.930 C 399.365 174.930,398.715 170.649,397.006 169.899 C 396.508 169.681,396.100 169.417,396.100 169.313 C 396.100 169.209,395.634 168.970,395.063 168.782 C 394.493 168.594,393.862 168.275,393.662 168.075 C 393.461 167.874,392.862 167.628,392.331 167.529 C 391.800 167.429,391.365 167.253,391.365 167.138 C 391.365 167.023,390.581 166.777,389.624 166.592 C 388.666 166.407,387.665 166.139,387.399 165.997 C 386.792 165.672,380.509 165.686,379.944 166.013 M39.624 166.894 C 39.226 167.292,39.109 177.159,39.502 177.159 C 39.627 177.159,39.901 177.597,40.111 178.134 C 40.322 178.670,40.602 179.109,40.735 179.109 C 40.868 179.109,41.107 179.485,41.267 179.944 C 41.428 180.404,41.664 180.780,41.792 180.780 C 41.920 180.780,42.184 181.219,42.378 181.755 C 42.572 182.291,42.821 182.730,42.932 182.730 C 43.044 182.730,43.312 183.075,43.529 183.496 C 43.745 183.917,44.205 184.732,44.551 185.306 L 45.180 186.351 42.708 186.351 C 38.962 186.351,39.276 185.081,39.276 200.252 C 39.276 211.649,39.323 213.051,39.716 213.201 C 39.959 213.294,42.267 213.370,44.847 213.370 C 47.426 213.370,49.735 213.294,49.977 213.201 C 50.365 213.053,50.418 212.056,50.418 204.868 L 50.418 196.704 56.696 196.611 C 60.633 196.553,63.048 196.410,63.172 196.228 C 63.281 196.068,63.903 195.766,64.554 195.557 C 65.205 195.347,65.738 195.101,65.738 195.009 C 65.738 194.918,66.093 194.687,66.526 194.495 C 67.495 194.066,70.752 190.872,70.752 190.351 C 70.752 190.142,70.884 189.972,71.045 189.972 C 71.206 189.972,71.469 189.596,71.629 189.136 C 71.790 188.677,72.014 188.301,72.128 188.301 C 72.241 188.301,72.500 187.580,72.702 186.699 C 72.905 185.818,73.175 184.978,73.304 184.833 C 73.602 184.495,73.613 178.273,73.315 178.273 C 73.192 178.273,72.937 177.521,72.747 176.602 C 72.557 175.682,72.293 174.930,72.161 174.930 C 72.029 174.930,71.790 174.554,71.629 174.095 C 71.469 173.635,71.206 173.259,71.045 173.259 C 70.884 173.259,70.752 173.076,70.752 172.851 C 70.752 172.321,67.515 169.174,66.512 168.730 C 66.086 168.542,65.738 168.313,65.738 168.222 C 65.738 168.130,65.205 167.884,64.554 167.675 C 63.903 167.465,63.281 167.163,63.172 167.003 C 62.860 166.547,40.076 166.441,39.624 166.894 M123.479 167.131 C 123.399 167.437,123.223 167.688,123.087 167.688 C 122.952 167.688,122.841 169.349,122.842 171.379 C 122.842 176.515,122.918 176.602,127.400 176.602 L 130.641 176.602 130.641 188.231 L 130.642 199.861 129.915 201.574 C 128.858 204.063,125.414 204.753,124.014 202.755 C 122.911 201.181,116.718 205.942,116.715 208.367 C 116.713 209.378,118.881 211.978,119.726 211.978 C 119.917 211.978,120.138 212.148,120.218 212.356 C 120.298 212.564,120.890 212.903,121.533 213.110 C 122.176 213.317,122.791 213.617,122.901 213.777 C 123.184 214.190,131.711 214.168,131.974 213.754 C 132.083 213.581,132.581 213.352,133.081 213.243 C 133.580 213.135,134.144 212.900,134.334 212.721 C 134.524 212.542,135.150 212.178,135.724 211.913 C 136.299 211.647,136.769 211.302,136.769 211.147 C 136.769 210.991,136.943 210.864,137.155 210.864 C 137.368 210.864,137.838 210.472,138.200 209.993 C 138.562 209.514,139.051 208.913,139.288 208.658 C 139.524 208.402,139.893 207.760,140.108 207.230 C 140.322 206.701,140.578 206.205,140.677 206.128 C 140.948 205.918,141.504 203.492,141.504 202.523 C 141.504 202.055,141.630 201.671,141.783 201.671 C 141.965 201.671,142.061 195.775,142.061 184.540 C 142.061 173.305,141.965 167.409,141.783 167.409 C 141.630 167.409,141.504 167.221,141.504 166.992 C 141.504 166.239,123.676 166.377,123.479 167.131 M150.553 166.905 C 150.476 167.106,150.446 177.611,150.485 190.251 L 150.557 213.231 160.585 213.308 C 169.958 213.380,174.235 213.158,174.643 212.579 C 174.724 212.463,175.575 212.136,176.532 211.851 C 177.490 211.566,178.273 211.239,178.273 211.125 C 178.273 211.011,178.649 210.787,179.109 210.627 C 179.568 210.466,179.944 210.234,179.944 210.110 C 179.944 209.987,180.334 209.713,180.809 209.502 C 181.643 209.134,186.351 204.611,186.351 204.179 C 186.351 204.063,186.549 203.803,186.792 203.602 C 187.330 203.155,188.014 201.892,189.419 198.747 C 189.984 197.482,190.529 195.081,190.529 193.858 C 190.529 193.406,190.655 193.036,190.808 193.036 C 190.976 193.036,191.086 191.876,191.086 190.111 C 191.086 188.347,190.976 187.187,190.808 187.187 C 190.655 187.187,190.529 186.814,190.529 186.359 C 190.529 185.229,189.656 181.337,189.403 181.337 C 189.291 181.337,189.120 180.921,189.025 180.412 C 188.929 179.903,188.539 179.064,188.158 178.547 C 187.777 178.030,187.465 177.457,187.465 177.274 C 187.465 177.090,187.277 176.868,187.047 176.779 C 186.818 176.691,186.630 176.470,186.630 176.288 C 186.630 176.106,186.128 175.466,185.515 174.865 C 184.903 174.265,184.401 173.658,184.401 173.516 C 184.401 173.375,184.275 173.259,184.122 173.259 C 183.968 173.259,183.390 172.758,182.836 172.145 C 182.282 171.532,181.652 171.031,181.435 171.031 C 181.218 171.031,180.977 170.864,180.899 170.660 C 180.821 170.457,180.323 170.120,179.793 169.912 C 179.264 169.704,178.830 169.437,178.830 169.319 C 178.830 169.200,178.329 168.953,177.716 168.769 C 177.103 168.586,176.602 168.342,176.602 168.229 C 176.602 168.115,175.944 167.868,175.139 167.679 C 174.335 167.491,173.501 167.196,173.286 167.025 C 172.672 166.534,150.738 166.418,150.553 166.905 M238.837 166.945 C 238.450 167.955,238.853 177.758,239.295 178.087 C 239.535 178.266,239.910 178.820,240.129 179.318 C 240.347 179.815,240.606 180.223,240.703 180.223 C 240.800 180.223,241.035 180.599,241.226 181.058 C 241.416 181.518,241.667 181.894,241.783 181.894 C 241.899 181.894,242.158 182.302,242.359 182.799 C 242.560 183.297,242.889 183.805,243.089 183.927 C 243.290 184.050,243.454 184.315,243.454 184.517 C 243.454 184.718,243.714 185.213,244.031 185.617 L 244.609 186.351 241.952 186.351 C 238.410 186.351,238.700 185.072,238.786 200.335 L 238.858 213.231 244.150 213.231 L 249.443 213.231 249.517 204.944 L 249.590 196.657 250.213 196.659 C 250.827 196.661,252.089 198.124,252.089 198.833 C 252.089 199.015,252.213 199.164,252.364 199.164 C 252.515 199.164,252.833 199.572,253.070 200.070 C 253.857 201.719,254.345 202.507,254.581 202.507 C 254.709 202.507,254.891 202.812,254.984 203.184 C 255.078 203.556,255.335 204.042,255.557 204.264 C 255.948 204.655,256.785 206.027,257.587 207.591 C 257.803 208.012,258.082 208.357,258.207 208.357 C 258.333 208.357,258.508 208.647,258.597 209.002 C 258.686 209.356,259.013 209.940,259.324 210.298 C 259.634 210.656,259.889 211.111,259.889 211.310 C 259.889 211.509,260.045 211.772,260.237 211.894 C 260.428 212.017,260.724 212.368,260.894 212.674 C 261.382 213.555,272.565 213.684,272.841 212.813 C 273.084 212.048,272.739 210.582,272.275 210.404 C 272.069 210.325,271.820 209.895,271.722 209.449 C 271.624 209.003,271.396 208.544,271.215 208.428 C 271.034 208.312,270.639 207.747,270.338 207.173 C 270.036 206.598,269.705 206.128,269.602 206.128 C 269.498 206.128,269.283 205.752,269.123 205.292 C 268.962 204.833,268.723 204.457,268.590 204.457 C 268.458 204.457,268.177 204.018,267.967 203.482 C 267.756 202.946,267.479 202.507,267.351 202.507 C 267.222 202.507,266.998 202.194,266.852 201.811 C 266.707 201.428,266.484 201.114,266.358 201.114 C 266.232 201.114,265.970 200.675,265.776 200.139 C 265.582 199.603,265.322 199.164,265.197 199.164 C 265.072 199.164,264.814 198.788,264.624 198.329 C 264.434 197.869,264.188 197.493,264.078 197.493 C 263.775 197.493,263.201 196.095,263.383 195.801 C 263.471 195.659,263.714 195.543,263.924 195.543 C 264.134 195.543,264.471 195.386,264.674 195.195 C 264.876 195.003,265.412 194.659,265.864 194.429 C 267.044 193.829,270.017 190.829,270.488 189.763 C 270.708 189.265,270.978 188.858,271.087 188.858 C 271.197 188.858,271.442 188.325,271.633 187.674 C 271.823 187.023,272.110 186.401,272.271 186.291 C 272.454 186.167,272.563 184.427,272.563 181.616 C 272.563 178.804,272.454 177.065,272.271 176.940 C 272.110 176.830,271.823 176.208,271.633 175.557 C 271.442 174.906,271.197 174.373,271.087 174.373 C 270.978 174.373,270.712 173.966,270.497 173.468 C 270.012 172.348,266.924 169.282,265.761 168.768 C 265.289 168.559,264.903 168.298,264.903 168.188 C 264.903 168.079,264.370 167.833,263.719 167.643 C 263.068 167.453,262.445 167.166,262.336 167.005 C 261.994 166.501,239.030 166.443,238.837 166.945 M59.123 177.173 C 59.697 177.333,60.167 177.575,60.167 177.710 C 60.167 177.846,60.418 178.036,60.724 178.134 C 61.031 178.231,61.281 178.445,61.281 178.609 C 61.281 178.774,61.501 179.068,61.769 179.264 C 62.154 179.546,62.256 180.037,62.256 181.616 C 62.256 183.194,62.154 183.685,61.769 183.967 C 61.501 184.163,61.276 184.435,61.270 184.571 C 61.225 185.515,57.780 186.720,57.477 185.897 C 57.371 185.611,57.118 185.276,56.915 185.153 C 56.712 185.031,56.546 184.792,56.546 184.622 C 56.546 184.453,56.251 183.927,55.890 183.452 C 55.529 182.978,55.144 182.308,55.035 181.964 C 54.926 181.619,54.735 181.337,54.611 181.337 C 54.487 181.337,54.229 180.961,54.039 180.501 C 53.849 180.042,53.598 179.666,53.482 179.666 C 53.366 179.666,53.119 179.299,52.933 178.850 C 52.747 178.401,52.419 177.967,52.203 177.884 C 50.016 177.045,56.326 176.397,59.123 177.173 M170.806 177.674 C 171.526 178.003,172.192 178.273,172.287 178.273 C 173.059 178.273,176.833 181.991,177.370 183.279 C 177.594 183.820,177.892 184.333,178.030 184.420 C 178.168 184.507,178.419 185.322,178.587 186.231 C 178.755 187.139,179.004 188.101,179.140 188.367 C 179.443 188.960,179.470 191.643,179.172 191.643 C 179.054 191.643,178.797 192.486,178.602 193.515 C 178.407 194.545,178.152 195.454,178.035 195.535 C 177.919 195.616,177.646 196.121,177.430 196.657 C 176.895 197.983,173.893 200.950,172.622 201.409 C 172.053 201.615,171.588 201.873,171.588 201.983 C 171.588 202.229,169.070 202.786,167.953 202.786 C 167.501 202.786,167.131 202.911,167.131 203.064 C 167.131 203.232,165.970 203.343,164.206 203.343 L 161.281 203.343 161.281 190.074 L 161.281 176.805 165.390 176.939 C 168.816 177.052,169.716 177.174,170.806 177.674 M258.372 177.192 C 259.053 177.363,259.610 177.594,259.610 177.704 C 259.610 177.815,259.912 178.042,260.280 178.210 C 260.687 178.395,261.025 178.852,261.138 179.369 C 261.241 179.839,261.441 180.223,261.582 180.223 C 261.723 180.223,261.838 180.850,261.838 181.616 C 261.838 182.382,261.736 183.008,261.612 183.008 C 261.487 183.008,261.220 183.429,261.018 183.944 C 260.748 184.634,260.271 185.071,259.198 185.615 C 257.304 186.574,256.942 186.545,256.394 185.389 C 256.143 184.860,255.761 184.280,255.545 184.101 C 255.330 183.922,255.153 183.609,255.153 183.406 C 255.153 183.202,254.989 182.936,254.789 182.813 C 254.588 182.691,254.260 182.183,254.058 181.685 C 253.857 181.187,253.598 180.780,253.482 180.780 C 253.366 180.780,253.115 180.404,252.925 179.944 C 252.734 179.485,252.484 179.109,252.368 179.109 C 252.252 179.109,251.992 178.701,251.791 178.203 C 251.589 177.705,251.292 177.206,251.130 177.093 C 250.656 176.764,257.016 176.850,258.372 177.192 M222.841 230.919 C 222.841 231.072,222.475 231.198,222.027 231.198 C 220.928 231.198,218.384 231.799,218.384 232.059 C 218.384 232.174,218.000 232.352,217.530 232.455 C 217.060 232.559,216.612 232.808,216.535 233.009 C 216.458 233.211,216.059 233.458,215.648 233.559 C 215.238 233.660,214.652 233.984,214.345 234.279 C 214.039 234.574,213.381 235.141,212.883 235.538 C 212.385 235.936,211.978 236.408,211.978 236.587 C 211.978 236.767,211.727 237.070,211.421 237.261 C 211.114 237.453,210.864 237.796,210.864 238.025 C 210.864 238.253,210.738 238.440,210.585 238.440 C 210.094 238.440,210.277 240.277,210.816 240.765 C 211.096 241.018,211.442 241.226,211.584 241.226 C 211.727 241.226,212.000 241.476,212.192 241.783 C 212.383 242.089,212.726 242.340,212.955 242.340 C 213.184 242.340,213.370 242.468,213.370 242.625 C 213.370 242.782,213.684 243.030,214.067 243.175 C 214.450 243.321,214.763 243.560,214.763 243.707 C 214.763 243.854,214.999 244.048,215.287 244.140 C 215.575 244.231,216.107 244.563,216.469 244.876 C 217.386 245.672,218.434 245.393,219.699 244.018 C 220.266 243.401,220.878 242.897,221.059 242.897 C 221.240 242.897,221.456 242.721,221.539 242.507 C 221.621 242.292,222.198 242.031,222.822 241.925 C 223.445 241.820,223.955 241.619,223.955 241.480 C 223.955 241.340,224.269 241.226,224.652 241.226 C 225.035 241.226,225.348 241.335,225.348 241.469 C 225.348 241.603,225.734 241.790,226.206 241.885 C 227.107 242.065,228.691 243.360,228.691 243.917 C 228.691 244.097,228.814 244.285,228.966 244.336 C 229.585 244.545,229.606 246.931,229.000 248.261 C 228.677 248.971,228.412 249.678,228.412 249.832 C 228.412 249.986,228.255 250.212,228.064 250.334 C 227.872 250.457,227.527 250.929,227.298 251.384 C 226.869 252.233,226.725 252.400,222.695 256.685 C 221.398 258.064,220.337 259.273,220.336 259.371 C 220.335 259.470,219.270 260.598,217.970 261.878 C 216.669 263.159,215.604 264.303,215.602 264.422 C 215.600 264.540,214.565 265.695,213.301 266.987 C 210.130 270.230,210.186 270.148,210.181 271.571 C 210.170 275.496,210.324 277.136,210.744 277.557 C 211.496 278.309,240.811 278.212,241.216 277.456 C 241.644 276.655,241.593 268.471,241.156 267.883 C 240.849 267.470,240.004 267.406,234.020 267.342 L 227.232 267.270 230.733 263.649 C 236.124 258.072,236.325 257.851,236.747 257.033 C 236.964 256.612,237.230 256.267,237.339 256.267 C 237.448 256.267,237.693 255.891,237.883 255.432 C 238.073 254.972,238.324 254.596,238.440 254.596 C 238.556 254.596,238.816 254.189,239.017 253.691 C 239.219 253.193,239.454 252.723,239.540 252.646 C 239.807 252.409,240.390 250.548,240.390 249.934 C 240.390 249.613,240.528 249.304,240.698 249.247 C 241.125 249.105,241.144 241.829,240.719 241.084 C 240.545 240.779,240.270 239.997,240.107 239.345 C 239.944 238.694,239.691 238.162,239.544 238.162 C 239.396 238.162,239.276 238.005,239.275 237.813 C 239.275 237.255,236.516 233.998,236.037 233.989 C 235.864 233.986,235.560 233.788,235.362 233.548 C 234.741 232.800,231.464 231.435,229.904 231.274 C 229.084 231.189,228.412 231.012,228.412 230.880 C 228.412 230.748,227.159 230.641,225.627 230.641 C 223.955 230.641,222.841 230.752,222.841 230.919 M261.281 230.919 C 261.281 231.072,260.898 231.198,260.430 231.198 C 259.353 231.198,257.103 231.756,257.103 232.022 C 257.103 232.133,256.602 232.374,255.989 232.558 C 255.376 232.741,254.875 232.989,254.875 233.107 C 254.875 233.226,254.436 233.532,253.900 233.788 C 253.364 234.044,252.925 234.380,252.925 234.536 C 252.925 234.692,252.765 234.819,252.569 234.819 C 252.191 234.819,250.696 236.386,250.696 236.782 C 250.696 236.910,250.468 237.180,250.189 237.380 C 249.910 237.580,249.503 238.151,249.285 238.649 C 249.067 239.147,248.814 239.554,248.723 239.554 C 248.632 239.554,248.392 240.056,248.189 240.669 C 247.987 241.281,247.736 241.783,247.632 241.783 C 247.528 241.783,247.282 242.503,247.086 243.384 C 246.890 244.265,246.630 245.049,246.509 245.127 C 246.229 245.305,245.682 249.186,245.682 250.995 C 245.682 251.750,245.557 252.368,245.404 252.368 C 245.242 252.368,245.125 253.291,245.125 254.580 C 245.125 255.796,245.251 256.869,245.404 256.964 C 245.557 257.058,245.682 257.746,245.682 258.492 C 245.682 260.288,246.230 264.166,246.509 264.344 C 246.630 264.421,246.890 265.205,247.086 266.086 C 247.282 266.967,247.528 267.688,247.632 267.688 C 247.736 267.688,247.987 268.189,248.189 268.802 C 248.392 269.415,248.666 269.916,248.798 269.916 C 248.930 269.916,249.158 270.230,249.304 270.613 C 249.449 270.996,249.697 271.309,249.854 271.309 C 250.011 271.309,250.139 271.499,250.139 271.731 C 250.139 272.157,253.601 275.766,254.011 275.766 C 254.133 275.766,254.518 276.014,254.868 276.317 C 255.217 276.620,255.926 276.948,256.442 277.045 C 256.959 277.141,257.382 277.323,257.382 277.449 C 257.382 277.892,260.628 278.369,263.788 278.390 C 266.841 278.411,270.752 277.883,270.752 277.450 C 270.752 277.338,271.253 277.097,271.866 276.913 C 272.479 276.730,272.981 276.467,272.981 276.331 C 272.981 276.194,273.217 276.007,273.507 275.915 C 273.796 275.823,274.391 275.432,274.830 275.045 C 275.268 274.659,275.971 274.038,276.393 273.666 C 276.814 273.294,277.164 272.893,277.170 272.776 C 277.176 272.659,277.552 272.129,278.006 271.598 C 278.459 271.068,278.830 270.472,278.830 270.275 C 278.830 270.078,278.935 269.916,279.064 269.916 C 279.193 269.916,279.463 269.415,279.666 268.802 C 279.868 268.189,280.108 267.688,280.200 267.688 C 280.416 267.688,281.058 265.625,281.058 264.930 C 281.058 264.634,281.181 264.350,281.330 264.299 C 281.479 264.248,281.742 262.953,281.914 261.421 C 282.087 259.889,282.341 258.417,282.479 258.151 C 282.828 257.478,282.803 251.253,282.451 251.253 C 282.298 251.253,282.173 250.650,282.173 249.912 C 282.173 248.375,281.716 245.530,281.338 244.708 C 281.197 244.401,280.946 243.618,280.781 242.967 C 280.615 242.315,280.373 241.783,280.243 241.783 C 280.113 241.783,279.925 241.347,279.825 240.815 C 279.725 240.283,279.484 239.751,279.290 239.632 C 279.096 239.512,278.772 239.008,278.571 238.510 C 278.370 238.012,278.091 237.604,277.952 237.604 C 277.812 237.604,277.615 237.385,277.513 237.117 C 277.212 236.329,274.868 234.109,273.886 233.683 C 273.388 233.467,272.981 233.200,272.981 233.091 C 272.981 232.981,272.479 232.741,271.866 232.558 C 271.253 232.374,270.752 232.133,270.752 232.022 C 270.752 231.773,268.530 231.198,267.565 231.198 C 267.173 231.198,266.852 231.072,266.852 230.919 C 266.852 230.752,265.738 230.641,264.067 230.641 C 262.396 230.641,261.281 230.752,261.281 230.919 M298.607 230.883 C 298.607 231.017,297.828 231.214,296.875 231.322 C 295.922 231.430,294.500 231.822,293.714 232.193 C 292.929 232.565,292.155 232.869,291.995 232.869 C 291.834 232.869,291.631 233.057,291.543 233.287 C 291.455 233.517,291.205 233.705,290.989 233.705 C 290.446 233.705,286.755 237.321,286.512 238.092 C 286.403 238.437,286.197 238.719,286.054 238.719 C 285.911 238.719,285.794 239.032,285.794 239.415 C 285.794 239.798,285.919 240.111,286.072 240.111 C 286.226 240.111,286.351 240.299,286.351 240.529 C 286.351 240.759,286.451 240.947,286.573 240.947 C 286.817 240.947,287.793 241.647,288.612 242.409 C 288.901 242.678,289.235 242.897,289.356 242.897 C 289.477 242.897,290.009 243.268,290.540 243.721 C 291.070 244.175,291.607 244.551,291.733 244.557 C 291.859 244.563,292.161 244.768,292.405 245.012 C 293.117 245.723,294.190 245.296,295.931 243.610 C 297.137 242.443,297.799 242.019,298.626 241.887 C 299.228 241.790,299.721 241.602,299.721 241.469 C 299.721 241.335,299.972 241.226,300.279 241.226 C 300.585 241.226,300.836 241.337,300.836 241.473 C 300.836 241.609,301.262 241.801,301.782 241.898 C 302.990 242.125,304.066 242.970,304.292 243.867 C 304.388 244.253,304.590 244.568,304.741 244.568 C 305.080 244.568,305.105 247.701,304.769 248.064 C 304.634 248.210,304.381 248.776,304.207 249.323 C 303.895 250.302,303.394 251.093,302.437 252.122 C 302.169 252.410,301.949 252.740,301.949 252.855 C 301.948 252.970,301.415 253.580,300.765 254.211 C 300.114 254.841,298.969 256.062,298.219 256.924 C 297.469 257.786,296.111 259.275,295.200 260.234 C 294.290 261.193,292.709 262.887,291.689 263.998 C 290.668 265.110,289.143 266.742,288.301 267.627 C 285.830 270.220,285.794 270.308,285.794 273.818 C 285.794 278.480,283.972 278.013,301.834 277.927 L 316.852 277.855 316.929 272.862 C 316.987 269.053,316.921 267.815,316.650 267.643 C 316.455 267.519,313.318 267.416,309.680 267.414 C 306.041 267.411,303.067 267.315,303.072 267.201 C 303.076 267.086,303.640 266.501,304.325 265.902 C 305.010 265.302,305.571 264.707,305.571 264.578 C 305.571 264.450,306.856 263.043,308.426 261.452 C 311.397 258.443,312.662 256.982,313.370 255.744 C 313.600 255.343,313.878 254.946,313.988 254.864 C 314.378 254.571,315.538 252.166,315.741 251.230 C 315.855 250.707,316.088 250.189,316.261 250.080 C 316.678 249.815,316.698 240.733,316.282 240.450 C 316.121 240.340,315.838 239.733,315.654 239.100 C 315.469 238.467,315.130 237.794,314.901 237.603 C 314.672 237.413,314.485 237.089,314.485 236.884 C 314.485 236.678,314.234 236.376,313.928 236.212 C 313.621 236.048,313.370 235.751,313.370 235.553 C 313.370 235.166,311.112 233.426,310.609 233.426 C 310.443 233.426,310.306 233.316,310.306 233.181 C 310.306 233.047,309.899 232.772,309.401 232.570 C 308.903 232.369,308.418 232.091,308.323 231.952 C 308.228 231.813,307.257 231.559,306.164 231.387 C 305.072 231.215,304.178 230.977,304.178 230.858 C 304.178 230.738,302.925 230.641,301.393 230.641 C 299.861 230.641,298.607 230.750,298.607 230.883 M333.148 230.856 C 333.148 230.975,332.202 231.223,331.045 231.407 C 329.889 231.591,328.762 231.922,328.541 232.143 C 328.320 232.364,327.762 232.628,327.301 232.729 C 326.840 232.830,326.462 233.014,326.462 233.136 C 326.462 233.258,326.115 233.502,325.691 233.678 C 324.833 234.033,321.170 237.640,321.170 238.129 C 321.170 238.300,321.045 238.440,320.891 238.440 C 320.192 238.440,320.603 240.569,321.379 240.969 C 321.800 241.186,322.245 241.521,322.368 241.713 C 322.490 241.904,322.768 242.061,322.985 242.061 C 323.201 242.061,323.513 242.312,323.677 242.618 C 323.841 242.925,324.152 243.175,324.369 243.175 C 324.586 243.175,324.864 243.333,324.986 243.524 C 326.012 245.131,328.393 245.759,329.319 244.668 C 330.324 243.484,331.000 242.897,331.360 242.897 C 331.544 242.897,331.764 242.718,331.848 242.499 C 331.932 242.280,332.572 242.015,333.271 241.910 C 333.969 241.805,334.540 241.608,334.540 241.473 C 334.540 241.337,334.791 241.226,335.097 241.226 C 335.404 241.226,335.655 241.335,335.655 241.469 C 335.655 241.603,336.048 241.792,336.529 241.888 C 338.403 242.263,341.221 247.354,339.554 247.354 C 339.401 247.354,339.276 247.564,339.276 247.821 C 339.276 248.483,338.648 250.139,338.397 250.139 C 338.282 250.139,337.992 250.552,337.752 251.057 C 337.512 251.562,336.943 252.385,336.486 252.885 C 336.029 253.385,335.655 253.861,335.655 253.942 C 335.655 254.023,334.605 255.127,333.322 256.396 C 332.039 257.664,330.943 258.841,330.885 259.012 C 330.827 259.182,329.777 260.369,328.552 261.648 C 326.611 263.674,322.563 268.022,321.100 269.652 C 320.386 270.448,320.380 276.602,321.093 277.434 C 321.756 278.209,350.604 278.325,351.373 277.557 C 351.878 277.052,352.021 268.732,351.538 267.967 C 351.320 267.620,350.099 267.525,344.377 267.409 L 337.480 267.270 341.154 263.510 C 343.175 261.442,344.989 259.556,345.186 259.321 C 345.382 259.085,345.955 258.396,346.458 257.789 C 346.961 257.182,347.525 256.502,347.712 256.278 C 349.113 254.590,350.676 250.877,350.872 248.768 C 350.972 247.684,351.162 246.797,351.293 246.797 C 351.425 246.797,351.532 245.982,351.532 244.986 C 351.532 243.965,351.411 243.175,351.253 243.175 C 351.100 243.175,350.975 242.792,350.975 242.324 C 350.975 241.328,350.414 238.921,350.135 238.719 C 350.030 238.642,349.727 238.119,349.462 237.555 C 348.954 236.473,346.462 233.705,345.997 233.705 C 345.846 233.705,345.557 233.540,345.354 233.339 C 344.617 232.606,341.681 231.426,340.218 231.275 C 339.394 231.189,338.719 231.012,338.719 230.880 C 338.719 230.748,337.465 230.641,335.933 230.641 C 334.401 230.641,333.148 230.738,333.148 230.856 M48.677 231.499 C 47.877 231.965,47.927 277.556,48.728 277.985 C 49.521 278.409,71.892 278.376,72.828 277.950 L 73.538 277.626 73.538 273.244 C 73.538 267.962,74.419 268.524,66.133 268.524 L 59.610 268.524 59.610 250.240 C 59.610 233.153,59.578 231.931,59.123 231.586 C 58.521 231.129,49.441 231.053,48.677 231.499 M123.329 231.586 C 122.905 231.907,122.841 232.470,122.841 235.891 C 122.841 241.121,122.691 240.947,127.221 240.947 L 130.641 240.947 130.638 252.298 C 130.635 261.154,130.550 263.925,130.250 264.903 C 129.681 266.756,129.201 267.688,128.815 267.688 C 128.626 267.688,128.400 267.876,128.312 268.106 C 128.030 268.841,125.589 268.656,124.625 267.828 C 123.005 266.434,121.889 266.770,119.117 269.487 C 116.834 271.724,116.713 271.903,116.716 273.038 C 116.719 274.143,118.013 276.045,118.762 276.045 C 118.861 276.045,119.183 276.264,119.479 276.532 C 120.602 277.552,120.881 277.698,122.506 278.119 C 125.631 278.929,134.262 278.395,134.262 277.392 C 134.262 277.264,134.423 277.159,134.621 277.159 C 134.818 277.159,135.413 276.788,135.944 276.334 C 136.474 275.881,137.065 275.505,137.256 275.499 C 137.448 275.493,137.605 275.393,137.605 275.279 C 137.605 275.164,137.981 274.631,138.440 274.095 C 138.899 273.558,139.275 272.977,139.275 272.801 C 139.275 272.626,139.452 272.415,139.667 272.333 C 139.883 272.250,140.149 271.767,140.259 271.258 C 140.370 270.750,140.584 270.256,140.735 270.159 C 141.075 269.943,141.476 267.942,141.492 266.381 C 141.499 265.739,141.630 265.136,141.783 265.042 C 142.137 264.823,142.169 232.312,141.815 232.312 C 141.680 232.312,141.504 232.061,141.423 231.755 C 141.238 231.045,124.251 230.886,123.329 231.586 M150.070 231.586 C 149.541 231.987,149.300 241.783,149.818 241.783 C 149.948 241.783,150.281 242.284,150.557 242.897 C 150.833 243.510,151.154 244.011,151.269 244.011 C 151.383 244.011,151.609 244.387,151.769 244.847 C 151.929 245.306,152.169 245.682,152.301 245.682 C 152.434 245.682,152.714 246.121,152.925 246.657 C 153.135 247.194,153.394 247.632,153.500 247.632 C 153.606 247.632,153.849 248.008,154.039 248.468 C 154.229 248.928,154.481 249.304,154.597 249.304 C 154.714 249.304,154.887 249.523,154.982 249.791 C 155.076 250.059,155.227 250.435,155.316 250.627 C 155.439 250.891,154.885 250.977,153.018 250.984 C 149.231 250.997,149.582 249.622,149.582 264.446 C 149.582 272.735,149.679 277.159,149.861 277.159 C 150.014 277.159,150.139 277.333,150.139 277.547 C 150.139 278.238,157.960 278.670,160.097 278.097 L 160.724 277.929 160.724 269.745 L 160.724 261.560 161.351 261.569 C 162.165 261.580,162.819 262.092,163.083 262.924 C 163.199 263.290,163.656 264.167,164.098 264.873 C 164.963 266.253,165.083 266.440,166.151 268.049 C 166.537 268.630,166.852 269.219,166.852 269.358 C 166.852 269.497,167.016 269.710,167.217 269.833 C 167.417 269.955,167.746 270.463,167.947 270.961 C 168.148 271.459,168.408 271.866,168.524 271.866 C 168.640 271.866,168.890 272.242,169.081 272.702 C 169.271 273.162,169.506 273.538,169.604 273.538 C 169.701 273.538,169.960 273.942,170.178 274.437 C 170.663 275.532,171.685 277.126,172.326 277.786 C 172.908 278.385,182.158 278.522,183.413 277.950 C 184.098 277.638,184.515 275.766,183.900 275.766 C 183.777 275.766,183.369 275.181,182.994 274.467 C 181.826 272.242,181.592 271.866,181.374 271.866 C 181.258 271.866,180.990 271.428,180.780 270.891 C 180.570 270.355,180.289 269.916,180.156 269.916 C 180.024 269.916,179.784 269.540,179.624 269.081 C 179.464 268.621,179.235 268.245,179.115 268.245 C 178.996 268.245,178.742 267.869,178.552 267.409 C 178.361 266.950,178.104 266.574,177.979 266.574 C 177.855 266.574,177.674 266.324,177.577 266.018 C 177.480 265.713,177.248 265.305,177.060 265.113 C 176.873 264.921,176.499 264.293,176.230 263.719 C 175.960 263.144,175.644 262.674,175.526 262.674 C 175.409 262.674,175.141 262.235,174.930 261.699 C 174.720 261.163,174.419 260.724,174.262 260.724 C 174.105 260.724,174.411 260.499,174.941 260.223 C 176.644 259.338,177.293 258.922,177.521 258.565 C 177.643 258.374,177.895 258.217,178.080 258.217 C 178.369 258.217,179.149 257.426,181.058 255.197 C 182.736 253.239,183.414 250.978,183.524 246.985 C 183.628 243.201,183.101 239.554,182.451 239.554 C 182.331 239.554,182.162 239.272,182.075 238.928 C 181.760 237.679,178.160 233.827,177.047 233.547 C 176.671 233.453,176.298 233.206,176.219 232.999 C 176.139 232.791,175.629 232.538,175.084 232.436 C 174.540 232.334,174.095 232.156,174.095 232.041 C 174.095 231.170,151.189 230.736,150.070 231.586 M170.621 242.384 C 173.604 244.429,173.395 249.010,170.265 250.189 C 169.767 250.376,169.359 250.630,169.359 250.752 C 169.359 251.254,167.998 250.957,167.827 250.418 C 167.730 250.111,167.542 249.861,167.409 249.861 C 167.277 249.861,167.094 249.625,167.002 249.338 C 166.911 249.050,166.527 248.455,166.148 248.015 C 165.770 247.575,165.460 247.058,165.460 246.866 C 165.460 246.675,165.358 246.518,165.233 246.518 C 165.108 246.518,164.836 246.085,164.629 245.555 C 164.421 245.025,164.084 244.527,163.880 244.449 C 163.676 244.371,163.507 244.147,163.504 243.950 C 163.500 243.754,163.252 243.280,162.953 242.897 C 162.102 241.809,162.177 241.783,166.069 241.783 C 169.377 241.783,169.830 241.843,170.621 242.384 M265.934 242.131 C 267.175 242.685,268.979 244.754,269.274 245.961 C 269.368 246.344,269.544 246.723,269.665 246.804 C 270.113 247.100,270.534 250.947,270.534 254.735 C 270.534 258.524,270.113 262.370,269.665 262.667 C 269.544 262.748,269.368 263.127,269.274 263.510 C 268.979 264.717,267.175 266.785,265.934 267.340 C 264.604 267.934,261.281 267.580,261.281 266.844 C 261.281 266.716,261.031 266.532,260.724 266.435 C 260.418 266.337,260.167 266.085,260.167 265.874 C 260.167 265.664,259.925 265.321,259.628 265.114 C 259.332 264.906,258.935 264.116,258.747 263.357 C 258.559 262.598,258.304 261.910,258.179 261.826 C 257.166 261.149,257.214 247.075,258.229 247.075 C 258.336 247.075,258.581 246.511,258.774 245.822 C 258.967 245.132,259.238 244.568,259.376 244.568 C 259.515 244.568,259.708 244.349,259.807 244.081 C 260.486 242.235,263.804 241.179,265.934 242.131 " stroke="none" fill="#040404" fill-rule="evenodd"></path><path id="path4" d="M95.125 259.889 L 80.919 260.036 95.039 260.101 C 104.224 260.144,109.219 260.070,109.331 259.889 C 109.426 259.735,109.465 259.640,109.418 259.676 C 109.370 259.712,102.939 259.808,95.125 259.889 " stroke="none" fill="#403058" fill-rule="evenodd"></path><path id="path5" d="" stroke="none" fill="#443004" fill-rule="evenodd"></path><path id="path6" d="" stroke="none" fill="#043404" fill-rule="evenodd"></path><path id="path7" d="" stroke="none" fill="#080404" fill-rule="evenodd"></path><path id="path8" d="" stroke="none" fill="#080404" fill-rule="evenodd"></path></g></svg>
