<svg xmlns="http://www.w3.org/2000/svg" viewBox="440 120 250 550" height="140" width="140"><defs><clipPath id="a"><path d="M0 595.276h841.89V0H0z"/></clipPath></defs><g clip-path="url(#a)" transform="matrix(1.33333 0 0 -1.33333 0 793.701)"><path d="M448.219 204.932H432.28c-.681 0-1.291-.612-1.291-1.291v-6.838c0-.748.61-1.291 1.29-1.291h6.36v-23.867c0-3.397-2.105-5.162-4.007-5.162-1.835 0-2.65.61-3.465 1.426-.543.543-1.29.475-1.834 0l-4.62-4.551a1.432 1.432 0 0 1-.135-1.7c1.155-1.426 4.415-4.958 10.325-4.958 7.948 0 14.606 5.435 14.606 14.877v32.064a1.29 1.29 0 0 1-1.291 1.29M482.19 189.92c0-3.059-2.446-5.367-5.366-5.367h-.365l-6.65 10.392h7.014c2.92 0 5.367-2.173 5.367-5.026m.104-14.488c5.982 2.037 10.357 7.761 10.357 14.488 0 8.22-6.861 15.013-15.218 15.013h-17.73a1.29 1.29 0 0 1-1.29-1.29v-8.697h.005-.005l6.438-10.392h-5.148a1.29 1.29 0 0 1-1.29-1.292v-24.59c0-.68.543-1.292 1.29-1.292h8.016c.68 0 1.29.611 1.29 1.291v15.964h1.987l10.31-16.644c.137-.27.543-.61 1.086-.61h9.035c1.156 0 1.63 1.087 1.156 1.97zM354.35 158.67a1.29 1.29 0 0 1 1.292-1.29h22.567c.679 0 1.29.611 1.29 1.29v6.838a1.29 1.29 0 0 1-1.29 1.291h-12.99v36.842a1.29 1.29 0 0 1-1.29 1.291h-8.287c-.68 0-1.291-.612-1.291-1.29z" fill="#1d1d1b"/><path d="M416.103 194.946a1.29 1.29 0 0 1 1.291 1.29v7.405c0 .68-.612 1.29-1.291 1.29h-28.057c-.679 0-1.29-.61-1.29-1.29v-7.404a1.29 1.29 0 0 1 1.29-1.291zM416.103 157.38a1.29 1.29 0 0 1 1.291 1.29v7.404c0 .68-.612 1.291-1.291 1.291h-28.057c-.679 0-1.29-.612-1.29-1.29v-7.405a1.29 1.29 0 0 1 1.29-1.29zM416.103 176.162a1.29 1.29 0 0 1 1.291 1.291v7.404c0 .68-.612 1.291-1.291 1.291h-28.057c-.679 0-1.29-.61-1.29-1.29v-7.405a1.29 1.29 0 0 1 1.29-1.29z" fill="#7c7b7b"/><path d="M237.292 252.398c-5.366 2.175-7.405 4.076-7.405 6.59 0 1.835 1.835 3.465 4.28 3.465 4.144 0 9.103-3.737 9.714-4.076.612-.477 1.835.135 2.31.882l3.465 5.232c.271.474.407 1.697-.408 2.174-2.038 1.494-7.473 5.094-14.538 5.094-10.461 0-15.692-6.794-15.692-13.518 0-8.153 7.337-12.703 13.179-15.014 4.619-1.834 6.997-4.008 6.997-6.86 0-2.377-1.97-4.076-4.687-4.076-4.484 0-9.375 3.599-9.647 3.736-.475.34-1.766.475-2.309-.407l-3.193-5.64c-.543-.95-.34-1.222.34-1.901 1.562-1.563 6.453-5.231 15.284-5.231 9.987 0 16.032 7.065 16.032 14.062 0 9.238-8.424 13.383-13.722 15.488M614.375 252.398c-5.366 2.175-7.405 4.076-7.405 6.59 0 1.835 1.835 3.465 4.28 3.465 4.144 0 9.103-3.737 9.715-4.076.61-.477 1.834.135 2.308.882l3.465 5.232c.272.474.408 1.697-.408 2.174-2.037 1.494-7.473 5.094-14.537 5.094-10.462 0-15.692-6.794-15.692-13.518 0-8.153 7.336-12.703 13.178-15.014 4.619-1.834 6.997-4.008 6.997-6.86 0-2.377-1.969-4.076-4.686-4.076-4.485 0-9.375 3.599-9.648 3.736-.474.34-1.765.475-2.308-.407l-3.194-5.64c-.543-.95-.339-1.222.34-1.901 1.563-1.563 6.453-5.231 15.284-5.231 9.988 0 16.033 7.065 16.033 14.062 0 9.238-8.423 13.383-13.722 15.488M389.447 233.58h-5.842v27.514h5.842c7.676 0 13.247-6.047 13.247-13.723 0-7.744-5.571-13.79-13.247-13.79m.679 37.498H374.23c-.68 0-1.222-.61-1.222-1.29v-44.972c0-.678.543-1.29 1.222-1.29h15.896c13.11 0 23.844 10.665 23.844 23.844 0 13.043-10.733 23.708-23.844 23.708M545.951 271.08H537.8a1.291 1.291 0 0 1-1.29-1.292v-26.154h-.068l-20.653 27.105c-.543.544-1.019 1.02-1.697 1.02h-6.453c-.68 0-1.29-.545-1.29-1.224v-45.718c0-.679.678-1.29 1.357-1.29h8.084a1.29 1.29 0 0 1 1.291 1.29v27.376h.068l20.991-28.599c.544-.543 1.018-.746 1.698-.746h6.114c.68 0 1.29.407 1.29 1.222v45.718c0 .68-.61 1.291-1.29 1.291M362.38 271.08h-15.94c-.68 0-1.29-.613-1.29-1.292v-6.838a1.29 1.29 0 0 1 1.29-1.29h6.362v-23.867c0-3.398-2.106-5.163-4.008-5.163-1.835 0-2.65.611-3.465 1.426-.543.543-1.29.476-1.834 0l-4.62-4.55a1.43 1.43 0 0 1-.135-1.699c1.155-1.427 4.415-4.959 10.326-4.959 7.948 0 14.605 5.434 14.605 14.876v32.064a1.29 1.29 0 0 1-1.291 1.291M277.842 250.7h-.364l-6.65 10.394h7.014c2.92 0 5.367-2.174 5.367-5.029 0-3.055-2.446-5.366-5.367-5.366m.61 20.38h-17.73c-.746 0-1.29-.61-1.29-1.29v-8.695h.007-.006l6.438-10.395h-5.148c-.747 0-1.29-.61-1.29-1.292v-24.59c0-.68.543-1.29 1.29-1.29h8.016c.679 0 1.29.61 1.29 1.29v15.964h8.492c8.288 0 15.149 6.861 15.149 15.284 0 8.221-6.861 15.014-15.217 15.014M487.352 256.067c0-3.057-2.445-5.367-5.365-5.367h-.365l-6.65 10.394h7.015c2.92 0 5.365-2.174 5.365-5.027m.104-14.488c5.982 2.037 10.357 7.762 10.357 14.488 0 8.22-6.86 15.013-15.217 15.013h-17.73a1.29 1.29 0 0 1-1.29-1.291v-8.695h.006l-.005-.001 6.437-10.393h-5.147c-.746 0-1.29-.613-1.29-1.292v-24.59a1.29 1.29 0 0 1 1.29-1.291h8.016c.679 0 1.29.612 1.29 1.29v15.965h1.987l10.309-16.643c.136-.272.543-.612 1.086-.612h9.035c1.156 0 1.63 1.088 1.156 1.97z" fill="#1d1d1b"/><path d="M331.204 261.094a1.29 1.29 0 0 1 1.291 1.291v7.403c0 .679-.612 1.291-1.29 1.291h-28.058c-.679 0-1.29-.612-1.29-1.291v-7.403a1.29 1.29 0 0 1 1.29-1.291zM331.204 223.527a1.29 1.29 0 0 1 1.291 1.29v7.405c0 .679-.612 1.29-1.29 1.29h-28.058c-.679 0-1.29-.611-1.29-1.29v-7.404a1.29 1.29 0 0 1 1.29-1.291zM331.204 242.31a1.29 1.29 0 0 1 1.291 1.292v7.403c0 .679-.612 1.29-1.29 1.29h-28.058c-.679 0-1.29-.611-1.29-1.29v-7.403a1.29 1.29 0 0 1 1.29-1.291z" fill="#ea4d57"/><path d="M451.871 261.094c.68 0 1.291.543 1.291 1.291v7.403c0 .679-.61 1.291-1.29 1.291h-28.058c-.678 0-1.29-.612-1.29-1.291v-7.403a1.29 1.29 0 0 1 1.29-1.291zM451.871 223.527c.68 0 1.291.543 1.291 1.29v7.405c0 .679-.61 1.29-1.29 1.29h-28.058c-.678 0-1.29-.611-1.29-1.29v-7.404a1.29 1.29 0 0 1 1.29-1.291zM451.871 242.31c.68 0 1.291.544 1.291 1.292v7.403c0 .679-.61 1.29-1.29 1.29h-28.058c-.678 0-1.29-.611-1.29-1.29v-7.403a1.29 1.29 0 0 1 1.29-1.291z" fill="#1d95a0"/><path d="M586.172 261.094a1.29 1.29 0 0 1 1.29 1.291v7.403c0 .679-.611 1.291-1.29 1.291h-28.058c-.678 0-1.29-.612-1.29-1.291v-7.403a1.29 1.29 0 0 1 1.29-1.291zM586.172 223.527a1.29 1.29 0 0 1 1.29 1.29v7.405c0 .679-.611 1.29-1.29 1.29h-28.058c-.678 0-1.29-.611-1.29-1.29v-7.404a1.29 1.29 0 0 1 1.29-1.291zM586.172 242.31a1.29 1.29 0 0 1 1.29 1.292v7.403c0 .679-.611 1.29-1.29 1.29h-28.058c-.678 0-1.29-.611-1.29-1.29v-7.403a1.29 1.29 0 0 1 1.29-1.291z" fill="#fbbd43"/><path d="M441.397 300.865l-16.88 26.194 19.749 30.485 36.535-56.68zm-74.972-.001l57.185 88.73 15.803-24.474-41.65-64.256zm125.056-1.335l-.175.183-64.222 99.712c-.24.374-.56.69-.936.948v38.974c0 .663-.264 1.3-.732 1.77a2.503 2.503 0 0 1-4.27-1.77v-38.96a3.39 3.39 0 0 1-.975-.967l-64.697-100.44a4.102 4.102 0 0 1-.15-4.197 4.054 4.054 0 0 1 3.58-2.128H488.48a4.106 4.106 0 0 1 4.102 4.1 4.024 4.024 0 0 1-1.102 2.775" fill="#1d1d1b"/><path d="M455.726 429.674l4.65 5.977c.583.756.683 1.775.264 2.626a2.495 2.495 0 0 1-2.238 1.4h-27.253v-20.006h27.253c.95 0 1.819.544 2.238 1.4.419.851.319 1.87-.263 2.626z" fill="#1d95a0"/></g></svg>
