<svg xmlns="http://www.w3.org/2000/svg" viewBox="0 0 181.6 111"><title>SL2017_footer</title><path d="M107.25,90.24L87.09,100.85s-1.1.67-1.57,0.23,0.4-1.58.4-1.58l4.41-7.94a6.93,6.93,0,0,0,1.14-2.76,7,7,0,0,0-1.24-2.32l-4.54-6.81s-0.82-.94-0.47-1.48,1.67,0.23,1.67.23l20.4,9s1.27,0.47,1.27,1.35-1.3,1.46-1.3,1.46M107.1,70a28,28,0,0,0-10.86-2l-0.65,0C83.3,68,77.05,72.56,77,81.48l0,14.8c0,11.78,9.92,14.51,18.26,14.72h0.33c0.24,0,.47,0,0.69,0,8.37-.18,18.67-3.1,18.69-14.88l0-14.82c0-4.47-3-9.08-7.9-11.26" transform="translate(0 0)"/><path d="M6.53,62a6.23,6.23,0,0,1-3.46-.67C2.91,61.19,3,59,3.32,59a9.11,9.11,0,0,0,2.75.48c1.11,0,1.87-.27,1.87-1,0-.62-0.48-1-1.53-1.46C5,56.39,3.23,55.58,3.23,53.3c0-2.11,1.64-3.3,4.26-3.3a7.39,7.39,0,0,1,2.84.35c0.35,0.13-.08,2.38-0.5,2.27a10.69,10.69,0,0,0-2.13-.35c-1.11,0-1.53.31-1.53,0.9s0.53,0.9,1.5,1.33C9.3,55.25,11,56.37,11,58.5,11,61.45,8.52,62,6.53,62" transform="translate(0 0)"/><path d="M19.83,52.3H18.61a0.27,0.27,0,0,0-.31.29v2.85c0,0.25.07,0.31,0.34,0.31H20.1A1.58,1.58,0,0,0,21.72,54a1.65,1.65,0,0,0-1.89-1.65m-0.14,5.87H18.61c-0.29,0-.36.07-0.36,0.39v2.92c0,0.43-.19.52-0.65,0.52H15.43C15,62,15,61.8,15,61.43v-11c0-.31.09-0.43,0.52-0.43h4.53C23.49,50,25,51.33,25,54.18s-1.68,4-5.31,4" transform="translate(0 0)"/><path d="M35.65,62H28.49A0.47,0.47,0,0,1,28,61.48V50.54c0-.31,0-0.54.39-0.54h6.84c0.4,0,.45.13,0.45,0.36v1.56c0,0.33-.3.34-0.78,0.34H31.46c-0.37,0-.44.13-0.44,0.26v1.72a0.33,0.33,0,0,0,.37.38h3.09C35,54.62,35,54.79,35,55l-0.14,1.53c-0.05.47-.56,0.43-0.81,0.43H31.53a0.38,0.38,0,0,0-.47.38v2c0,0.38.27,0.36,0.59,0.36h3.49c0.61,0,.86.08,0.86,0.38v1.61a0.35,0.35,0,0,1-.35.39" transform="translate(0 0)"/><path d="M42.73,62.39a11.66,11.66,0,0,1-1.62.59c-0.25.07-.41,0-0.51-0.35l-0.54-1.77c-0.13-.44-0.05-0.67.26-0.79a6.47,6.47,0,0,0,.89-0.44A1.66,1.66,0,0,0,41.9,58V50.43c0-.31.08-0.43,0.46-0.43h2c0.49,0,.67.11,0.67,0.54v8.22a3.34,3.34,0,0,1-2.27,3.63" transform="translate(0 0)"/><path d="M56.63,54.21a1.8,1.8,0,0,0-2.06-1.84h-0.8c-0.46,0-.51.1-0.51,0.38v6.41c0,0.18.09,0.42,0.56,0.42h0.82a1.83,1.83,0,0,0,2-2V54.21ZM55.79,62H50.62A0.61,0.61,0,0,1,50,61.41V50.67c0-.34.07-0.67,0.48-0.67h4.06c2.71,0,5.46.69,5.46,4v4.3C60,61.52,57,62,55.79,62h0Z" transform="translate(0 0)"/><path d="M70.65,62H63.49A0.47,0.47,0,0,1,63,61.48V50.54c0-.31,0-0.54.39-0.54h6.84c0.4,0,.46.13,0.46,0.36v1.56c0,0.33-.3.34-0.78,0.34H66.46c-0.37,0-.44.13-0.44,0.26v1.72a0.33,0.33,0,0,0,.37.38h3.09C70,54.62,70,54.79,70,55l-0.14,1.53c-0.05.47-.56,0.43-0.81,0.43H66.53a0.38,0.38,0,0,0-.47.38v2c0,0.38.27,0.36,0.59,0.36h3.49c0.61,0,.86.08,0.86,0.38v1.61a0.35,0.35,0,0,1-.35.39" transform="translate(0 0)"/><path d="M79.81,52.28H78.59a0.27,0.27,0,0,0-.31.29v2.31c0,0.25.07,0.31,0.34,0.31h1.59a1.38,1.38,0,0,0,1.49-1.48,1.64,1.64,0,0,0-1.9-1.44m3.13,4.49c-0.24.1-.22,0.07-0.14,0.26l2.08,4.41c0.17,0.34.21,0.57-.24,0.56h-2.5a0.57,0.57,0,0,1-.63-0.48l-1.8-3.79a0.22,0.22,0,0,0-.27-0.13h-1c-0.15,0-.17.07-0.17,0.25v3.62c0,0.42-.19.52-0.65,0.52H75.43C75,62,75,61.8,75,61.43v-11c0-.31.08-0.43,0.51-0.43H80C83.27,50,85,51.59,85,53.8a3.24,3.24,0,0,1-2,3" transform="translate(0 0)"/><path d="M99.58,62l-1.75-.05a0.74,0.74,0,0,1-.72-0.42l-3.85-6c-0.22-.36-0.37-0.45-0.37,0v5.83c0,0.47-.07.57-0.57,0.57H90.6a0.46,0.46,0,0,1-.6-0.47V50.52A0.46,0.46,0,0,1,90.38,50h1.75a0.67,0.67,0,0,1,.77.34l3.88,6.2c0.19,0.31.35,0.29,0.35-.24V50.52a0.44,0.44,0,0,1,.4-0.52h2.05c0.33,0,.42.16,0.42,0.54V61.35c0,0.44,0,.67-0.42.65" transform="translate(0 0)"/><path d="M112.65,62h-7.15a0.47,0.47,0,0,1-.49-0.52V50.54c0-.31,0-0.54.39-0.54h6.84c0.4,0,.45.13,0.45,0.36v1.56c0,0.33-.3.34-0.78,0.34h-3.44c-0.37,0-.44.13-0.44,0.26v1.72a0.33,0.33,0,0,0,.37.38h3.09c0.47,0,.56.16,0.53,0.36l-0.14,1.53c-0.05.47-.56,0.43-0.81,0.43h-2.53a0.38,0.38,0,0,0-.47.38v2c0,0.38.27,0.36,0.59,0.36h3.49c0.61,0,.86.08,0.86,0.38v1.61a0.35,0.35,0,0,1-.35.39" transform="translate(0 0)"/><path d="M121.54,62a6.23,6.23,0,0,1-3.46-.67c-0.17-.14,0-2.33.24-2.3a9.11,9.11,0,0,0,2.75.48c1.11,0,1.86-.27,1.86-1,0-.62-0.48-1-1.53-1.46-1.43-.62-3.18-1.43-3.18-3.71,0-2.11,1.64-3.3,4.26-3.3a7.38,7.38,0,0,1,2.84.35c0.34,0.13-.07,2.38-0.5,2.27a10.64,10.64,0,0,0-2.13-.35c-1.11,0-1.54.31-1.54,0.9s0.53,0.9,1.5,1.33c1.64,0.75,3.34,1.87,3.34,4,0,2.95-2.48,3.5-4.46,3.5" transform="translate(0 0)"/><path d="M145.33,62h-6.86C138,62,138,61.84,138,61.43v-11c0-.31.11-0.43,0.52-0.43h2.17c0.52,0,.72.11,0.72,0.54v8.88c0,0.26.13,0.31,0.41,0.31h3.72c0.45,0,.45.15,0.45,0.38v1.51c0,0.34-.24.38-0.67,0.38" transform="translate(0 0)"/><path d="M157.65,62h-7.16a0.47,0.47,0,0,1-.49-0.52V50.54c0-.31,0-0.54.39-0.54h6.84c0.4,0,.45.13,0.45,0.36v1.56c0,0.33-.3.34-0.78,0.34h-3.44c-0.37,0-.44.13-0.44,0.26v1.72a0.33,0.33,0,0,0,.37.38h3.09c0.47,0,.56.16,0.52,0.36l-0.14,1.53c-0.05.47-.56,0.43-0.81,0.43h-2.53a0.38,0.38,0,0,0-.47.38v2c0,0.38.27,0.36,0.59,0.36h3.49c0.61,0,.86.08,0.86,0.38v1.61a0.35,0.35,0,0,1-.35.39" transform="translate(0 0)"/><path d="M163.73,62.39a11.51,11.51,0,0,1-1.62.59c-0.25.07-.41,0-0.51-0.35l-0.54-1.77c-0.13-.44,0-0.67.26-0.79a6.59,6.59,0,0,0,.89-0.44A1.66,1.66,0,0,0,162.9,58V50.43c0-.31.08-0.43,0.46-0.43h2c0.49,0,.67.11,0.67,0.54v8.22a3.34,3.34,0,0,1-2.27,3.63" transform="translate(0 0)"/><path d="M175.8,52.28h-1.22a0.27,0.27,0,0,0-.31.29v2.31c0,0.25.07,0.31,0.34,0.31h1.59a1.38,1.38,0,0,0,1.49-1.48,1.64,1.64,0,0,0-1.9-1.44m3.13,4.49c-0.24.1-.22,0.07-0.14,0.26l2.08,4.41c0.17,0.34.21,0.57-.24,0.56h-2.5a0.57,0.57,0,0,1-.63-0.48l-1.79-3.79a0.23,0.23,0,0,0-.27-0.13h-1c-0.15,0-.17.07-0.17,0.25v3.62c0,0.42-.19.52-0.65,0.52h-2.15C171,62,171,61.8,171,61.43v-11c0-.31.09-0.43,0.51-0.43H176c3.25,0,4.92,1.59,4.92,3.8a3.24,3.24,0,0,1-2,3" transform="translate(0 0)"/><path d="M70.14,111a1.05,1.05,0,0,0,.84-1.27V101.4c0-.55-0.27-1.1-3.45-1.1H57.17c-2,0-3-.58-3-1.73,0-1.9,2.21-3.21,4.46-4.4L58.89,94C64.28,91.26,71,87.82,71,79c0-7.37-5.56-11-17-11-7.91,0-11.92,2-13.43,2.79L40.24,71c-0.63.29-.77,2.8,0,6.07s1.79,4.55,2.16,4.55a18.93,18.93,0,0,1,10.26-3.12c3.1,0,5.08,1,5.08,2.56s-2.87,3.16-5.4,4.49c-0.53.28-1,.54-1.47,0.79C47.86,88,38,94.32,38,104.93v4.43a1.59,1.59,0,0,0,.63,1.15,2,2,0,0,0,1.08.48H70.14" transform="translate(0 0)"/><path d="M20.63,16.58l-0.15-.07c-0.38-.17-0.78-0.33-1.2-0.49-1.94-.74-4.34-1.65-3.87-3.74s2.65-2,3.38-2c0.37,0,.73,0,1.06,0l0.26,0a73.88,73.88,0,0,1,8.75,1.42c0.22,0,.69-0.35,1.23-1.71,1.22-3.08,1.57-7.83,1-8.32l-0.24-.07C29.65,1.2,27.33.38,19,.31H18.61C7.19,0.33.66,5,.64,13.1c0,9,12.94,14,12.94,14l0.15,0.05c2.68,1,4.59,1.76,4.62,3.62a2.11,2.11,0,0,1-.6,1.59c-0.85.83-2.59,1.1-5.43,0.93a73.72,73.72,0,0,1-8.7-1.09,17.4,17.4,0,0,0-2.75-.39C0,32.47-.27,41.2.3,42.14,1.52,43.25,6.64,44.49,15,44.51H15.2c12.45,0,18.52-4.35,18.59-13.26S26.21,19,20.63,16.58" transform="translate(0 0)"/><path d="M118,79.82a2.12,2.12,0,0,0,1.83,1.58h4.72c2.18,0,2.6,1,2.61,2.78v23.35c0,1,.38,1.47,2.61,1.47h9.54c1.61,0,1.69-.39,1.69-1.06V69.47a2,2,0,0,0-.19-1.22,1.85,1.85,0,0,0-1.16-.24h-9.88a6.17,6.17,0,0,0-3.21.87L120,72c-1.5.68-2,1.16-2,2.48v5.32Z" transform="translate(0 0)"/><path d="M168.21,108.23a3.2,3.2,0,0,1-3.14,2.5h-9.15c-2.22,0-3.76-.12-3.14-2l9.11-26.51c0.62-1.84-.18-2.62-2.08-2.62h-9.16c-1.78,0-2.34-.83-2.34-2,0-.72,0-7.51,0-7.51,0-1.67,0-3,2.33-3h29c1.91,0,2.28.83,1.85,2.15Z" transform="translate(0 0)"/><path d="M67.7,41c1.95,0,2.28-.34,2.28-1.12l0-7.07c0-.78,0-1.06-1.26-1.06l-10.64,0c-1,0-1.86-.19-1.86-1.51l0.08-28.7A1.11,1.11,0,0,0,55.81.36,4.72,4.72,0,0,0,53.66,0L43.88,0c-1.68,0-1.75.39-1.75,1.07L42,39.48a2.08,2.08,0,0,0,.14,1.15c0.06,0.08.2,0.3,1.22,0.3Z" transform="translate(0 0)"/></svg>