<?xml version="1.0" encoding="UTF-8" standalone="no"?>
<svg width="30px" height="28px" viewBox="0 0 30 28" version="1.1" xmlns="http://www.w3.org/2000/svg" xmlns:xlink="http://www.w3.org/1999/xlink">
    <!-- Generator: Sketch 3.8.2 (29753) - http://www.bohemiancoding.com/sketch -->
    <title>Snapchat-black</title>
    <desc>Created with Sketch.</desc>
    <defs></defs>
    <g id="Page-1" stroke="none" stroke-width="1" fill="none" fill-rule="evenodd">
        <g id="Forside" transform="translate(-237.000000, -2816.000000)" fill="#000000">
            <path d="M252.077438,2816 L252.076134,2816 C252.050602,2816 252.026603,2816 252.003754,2816.00031 C251.821578,2816.00214 251.522092,2816.00505 251.49518,2816.00535 C250.838395,2816.00535 249.524289,2816.09786 248.112731,2816.71909 C247.305667,2817.07405 246.579723,2817.55401 245.955141,2818.14566 C245.210489,2818.85061 244.603849,2819.71978 244.152396,2820.72939 C243.491241,2822.20764 243.648191,2824.69756 243.774242,2826.6985 L243.774702,2826.70163 C243.788197,2826.91592 243.802382,2827.13969 243.815339,2827.35773 C243.718347,2827.40215 243.56109,2827.44901 243.329307,2827.44901 C242.956367,2827.44901 242.512888,2827.33013 242.01152,2827.09589 C241.864001,2827.02739 241.695626,2826.99276 241.509846,2826.99276 C241.211357,2826.99276 240.896689,2827.08037 240.623731,2827.24038 C240.280311,2827.44145 240.058418,2827.72561 239.998153,2828.04067 C239.958436,2828.24907 239.960353,2828.66099 240.419243,2829.07871 C240.671652,2829.30868 241.042445,2829.52075 241.52104,2829.70935 C241.646632,2829.75866 241.795685,2829.80576 241.953555,2829.85568 C242.501387,2830.0293 243.330533,2830.2916 243.546752,2830.799 C243.656319,2831.05626 243.609165,2831.39478 243.406977,2831.80395 C243.401686,2831.81511 243.396396,2831.82604 243.391565,2831.83751 C243.341038,2831.95517 242.869649,2833.01982 241.902721,2834.14265 C241.353279,2834.78116 240.748096,2835.31479 240.104959,2835.72915 C239.319976,2836.23502 238.470588,2836.56575 237.58064,2836.71192 C237.231162,2836.76911 236.98159,2837.07957 237.001065,2837.43239 C237.007046,2837.53407 237.030968,2837.63545 237.072448,2837.73353 C237.072755,2837.73414 237.073138,2837.73476 237.073445,2837.73529 C237.214754,2838.06487 237.54238,2838.34483 238.07503,2838.59177 C238.725911,2838.89321 239.699357,2839.1468 240.968072,2839.34519 C241.032171,2839.46674 241.098723,2839.77224 241.144804,2839.98141 C241.193032,2840.20373 241.243329,2840.43232 241.315019,2840.67512 C241.392382,2840.93819 241.593037,2841.25255 242.108512,2841.25255 C242.303876,2841.25255 242.528529,2841.20867 242.788682,2841.15837 C243.169672,2841.08383 243.690668,2840.98215 244.340936,2840.98215 C244.701454,2840.98215 245.075084,2841.0138 245.451167,2841.07611 C246.176114,2841.19644 246.801079,2841.63664 247.524186,2842.14641 C248.582586,2842.89242 249.780608,2843.73682 251.611033,2843.73682 C251.660947,2843.73682 251.711015,2843.73521 251.76047,2843.73177 C251.820965,2843.7346 251.895952,2843.73682 251.975079,2843.73682 C253.80604,2843.73682 255.003755,2842.89211 256.061005,2842.14672 L256.062692,2842.14519 C256.785953,2841.63603 257.410228,2841.19644 258.134945,2841.07611 C258.510875,2841.01388 258.884427,2840.98215 259.245099,2840.98215 C259.866307,2840.98215 260.358167,2841.06112 260.797353,2841.14652 C261.083958,2841.20278 261.306694,2841.22985 261.477599,2841.22985 L261.494314,2841.23015 L261.511642,2841.23015 C261.888646,2841.23015 262.165667,2841.02381 262.271399,2840.66274 C262.341632,2840.42505 262.391777,2840.20182 262.441231,2839.97575 C262.484321,2839.77973 262.553174,2839.46552 262.617273,2839.34266 C263.886832,2839.14389 264.859894,2838.89084 265.510851,2838.58947 C266.042275,2838.34368 266.369517,2838.06403 266.51167,2837.73583 C266.5543,2837.63743 266.579219,2837.53545 266.584816,2837.43163 C266.604828,2837.07942 266.354873,2836.76834 266.005165,2836.71116 C262.049966,2836.06118 260.268153,2832.00899 260.19447,2831.83682 C260.189716,2831.82551 260.184349,2831.81427 260.178752,2831.80333 C259.976564,2831.39402 259.92987,2831.05588 260.039513,2830.79816 C260.255272,2830.29122 261.083881,2830.02892 261.632096,2829.85537 C261.79081,2829.80553 261.9404,2829.75813 262.064994,2829.70905 C262.604699,2829.49651 262.990443,2829.26594 263.244922,2829.0041 C263.548855,2828.69195 263.608047,2828.39287 263.604367,2828.19716 C263.595089,2827.72362 263.232041,2827.30284 262.654536,2827.09681 C262.459479,2827.01638 262.23705,2826.97395 262.010556,2826.97395 C261.856366,2826.97395 261.628033,2826.99505 261.41189,2827.09566 C260.949166,2827.31156 260.53467,2827.4296 260.178828,2827.44641 C259.989598,2827.43686 259.856876,2827.39596 259.770926,2827.35689 C259.781737,2827.17219 259.793698,2826.98244 259.806042,2826.78458 L259.811179,2826.69987 C259.93792,2824.69763 260.095408,2822.2058 259.433946,2820.72648 C258.980576,2819.71328 258.371789,2818.8419 257.624146,2818.13542 C256.997111,2817.54338 256.268714,2817.0635 255.458736,2816.70877 C254.049171,2816.09212 252.735142,2816 252.077438,2816" id="Snapchat"></path>
        </g>
    </g>
</svg>