<?xml version="1.0" encoding="UTF-8" standalone="no"?>
<svg width="317px" height="142px" viewBox="0 0 317 142" version="1.1" xmlns="http://www.w3.org/2000/svg" xmlns:xlink="http://www.w3.org/1999/xlink">
    <!-- Generator: Sketch 3.8.2 (29753) - http://www.bohemiancoding.com/sketch -->
    <title>billet</title>
    <desc>Created with Sketch.</desc>
    <defs>
        <linearGradient x1="50%" y1="0%" x2="63.1121232%" y2="104.804217%" id="linearGradient-1">
            <stop stop-color="#FFFFFF" offset="0%"></stop>
            <stop stop-color="#EBEAE5" offset="100%"></stop>
        </linearGradient>
        <path d="M1,120.615088 L1,14.1617912 C1.40199376,14.2017035 1.8097174,14.2221383 2.22221383,14.2221383 C8.9723144,14.2221383 14.4443521,8.75010058 14.4443521,2 L54.8385301,2 C55.1216378,3.39469284 56.354701,4.44442765 57.8329429,4.44442765 C59.3111849,4.44442765 60.5442481,3.39469284 60.8273558,2 L294.331318,2 C294.331318,8.75010058 299.803356,14.2221383 306.553457,14.2221383 C306.965953,14.2221383 307.373677,14.2017035 307.775671,14.1617912 L307.775671,120.615088 C307.373677,120.575176 306.965953,120.554741 306.553457,120.554741 C299.803356,120.554741 294.331318,126.026779 294.331318,132.776879 C294.331318,133.189376 294.351753,133.5971 294.391666,133.999093 L60.8273558,133.999093 C60.8674369,133.801639 60.8884775,133.59727 60.8884775,133.387986 C60.8884775,131.700461 59.5204681,130.332452 57.8329429,130.332452 C56.1454178,130.332452 54.7774084,131.700461 54.7774084,133.387986 C54.7774084,133.59727 54.798449,133.801639 54.8385301,133.999093 L14.384005,133.999093 C14.4239174,133.5971 14.4443521,133.189376 14.4443521,132.776879 C14.4443521,126.026779 8.9723144,120.554741 2.22221383,120.554741 C1.8097174,120.554741 1.40199376,120.575176 1,120.615088 Z M57.8329429,75.3328296 C59.5204681,75.3328296 60.8884775,73.9648202 60.8884775,72.277295 C60.8884775,70.5897699 59.5204681,69.2217605 57.8329429,69.2217605 C56.1454178,69.2217605 54.7774084,70.5897699 54.7774084,72.277295 C54.7774084,73.9648202 56.1454178,75.3328296 57.8329429,75.3328296 Z M57.8329429,85.1105402 C59.5204681,85.1105402 60.8884775,83.7425308 60.8884775,82.0550057 C60.8884775,80.3674805 59.5204681,78.9994711 57.8329429,78.9994711 C56.1454178,78.9994711 54.7774084,80.3674805 54.7774084,82.0550057 C54.7774084,83.7425308 56.1454178,85.1105402 57.8329429,85.1105402 Z M57.8329429,96.1104647 C59.5204681,96.1104647 60.8884775,94.7424552 60.8884775,93.0549301 C60.8884775,91.367405 59.5204681,89.9993955 57.8329429,89.9993955 C56.1454178,89.9993955 54.7774084,91.367405 54.7774084,93.0549301 C54.7774084,94.7424552 56.1454178,96.1104647 57.8329429,96.1104647 Z M57.8329429,105.888175 C59.5204681,105.888175 60.8884775,104.520166 60.8884775,102.832641 C60.8884775,101.145116 59.5204681,99.7771061 57.8329429,99.7771061 C56.1454178,99.7771061 54.7774084,101.145116 54.7774084,102.832641 C54.7774084,104.520166 56.1454178,105.888175 57.8329429,105.888175 Z M57.8329429,115.665886 C59.5204681,115.665886 60.8884775,114.297876 60.8884775,112.610351 C60.8884775,110.922826 59.5204681,109.554817 57.8329429,109.554817 C56.1454178,109.554817 54.7774084,110.922826 54.7774084,112.610351 C54.7774084,114.297876 56.1454178,115.665886 57.8329429,115.665886 Z M57.8329429,126.66581 C59.5204681,126.66581 60.8884775,125.297801 60.8884775,123.610276 C60.8884775,121.922751 59.5204681,120.554741 57.8329429,120.554741 C56.1454178,120.554741 54.7774084,121.922751 54.7774084,123.610276 C54.7774084,125.297801 56.1454178,126.66581 57.8329429,126.66581 Z M57.8329429,14.2221383 C59.5204681,14.2221383 60.8884775,12.8541288 60.8884775,11.1666037 C60.8884775,9.47907856 59.5204681,8.11106913 57.8329429,8.11106913 C56.1454178,8.11106913 54.7774084,9.47907856 54.7774084,11.1666037 C54.7774084,12.8541288 56.1454178,14.2221383 57.8329429,14.2221383 Z M57.8329429,25.2220627 C59.5204681,25.2220627 60.8884775,23.8540533 60.8884775,22.1665281 C60.8884775,20.479003 59.5204681,19.1109936 57.8329429,19.1109936 C56.1454178,19.1109936 54.7774084,20.479003 54.7774084,22.1665281 C54.7774084,23.8540533 56.1454178,25.2220627 57.8329429,25.2220627 Z M57.8329429,34.9997733 C59.5204681,34.9997733 60.8884775,33.6317639 60.8884775,31.9442388 C60.8884775,30.2567136 59.5204681,28.8887042 57.8329429,28.8887042 C56.1454178,28.8887042 54.7774084,30.2567136 54.7774084,31.9442388 C54.7774084,33.6317639 56.1454178,34.9997733 57.8329429,34.9997733 Z M57.8329429,44.7774839 C59.5204681,44.7774839 60.8884775,43.4094745 60.8884775,41.7219494 C60.8884775,40.0344242 59.5204681,38.6664148 57.8329429,38.6664148 C56.1454178,38.6664148 54.7774084,40.0344242 54.7774084,41.7219494 C54.7774084,43.4094745 56.1454178,44.7774839 57.8329429,44.7774839 Z M57.8329429,55.7774084 C59.5204681,55.7774084 60.8884775,54.409399 60.8884775,52.7218738 C60.8884775,51.0343487 59.5204681,49.6663392 57.8329429,49.6663392 C56.1454178,49.6663392 54.7774084,51.0343487 54.7774084,52.7218738 C54.7774084,54.409399 56.1454178,55.7774084 57.8329429,55.7774084 Z M57.8329429,65.555119 C59.5204681,65.555119 60.8884775,64.1871096 60.8884775,62.4995844 C60.8884775,60.8120593 59.5204681,59.4440499 57.8329429,59.4440499 C56.1454178,59.4440499 54.7774084,60.8120593 54.7774084,62.4995844 C54.7774084,64.1871096 56.1454178,65.555119 57.8329429,65.555119 Z" id="path-2"></path>
        <filter x="-50%" y="-50%" width="200%" height="200%" filterUnits="objectBoundingBox" id="filter-3">
            <feOffset dx="4" dy="3" in="SourceAlpha" result="shadowOffsetOuter1"></feOffset>
            <feGaussianBlur stdDeviation="2.5" in="shadowOffsetOuter1" result="shadowBlurOuter1"></feGaussianBlur>
            <feComposite in="shadowBlurOuter1" in2="SourceAlpha" operator="out" result="shadowBlurOuter1"></feComposite>
            <feColorMatrix values="0 0 0 0 0   0 0 0 0 0   0 0 0 0 0  0 0 0 0.332625679 0" type="matrix" in="shadowBlurOuter1"></feColorMatrix>
        </filter>
        <mask id="mask-4" maskContentUnits="userSpaceOnUse" maskUnits="objectBoundingBox" x="0" y="0" width="306.775671" height="131.999093" fill="white">
            <use xlink:href="#path-2"></use>
        </mask>
    </defs>
    <g id="Page-1" stroke="none" stroke-width="1" fill="none" fill-rule="evenodd">
        <g id="billet">
            <use fill="black" fill-opacity="1" filter="url(#filter-3)" xlink:href="#path-2"></use>
            <use stroke="#FFFFFF" mask="url(#mask-4)" stroke-width="6" fill="url(#linearGradient-1)" fill-rule="evenodd" xlink:href="#path-2"></use>
        </g>
    </g>
</svg>