<svg xmlns="http://www.w3.org/2000/svg" viewBox="0 0 29.59 24.66"><defs><style>.a{fill:#fff;}</style></defs><title>Twitter-black</title><path class="a" d="M29.59,2.92a11.86,11.86,0,0,1-3.49,1A6.21,6.21,0,0,0,28.77.46,12,12,0,0,1,24.91,2a6,6,0,0,0-4.43-2,6.15,6.15,0,0,0-6.07,6.22,6.35,6.35,0,0,0,.16,1.42A17.09,17.09,0,0,1,2.06,1.14a6.34,6.34,0,0,0-.82,3.13,6.26,6.26,0,0,0,2.7,5.18,6,6,0,0,1-2.75-.78V8.75a6.19,6.19,0,0,0,4.87,6.1,5.79,5.79,0,0,1-1.6.22A5.9,5.9,0,0,1,3.32,15,6.09,6.09,0,0,0,9,19.28a12,12,0,0,1-7.54,2.67A12.12,12.12,0,0,1,0,21.86a16.9,16.9,0,0,0,9.3,2.79c11.17,0,17.27-9.48,17.27-17.71,0-.27,0-0.54,0-0.81a12.46,12.46,0,0,0,3-3.22" transform="translate(0 0)"/></svg>