<?xml version="1.0" encoding="UTF-8" standalone="no"?>
<svg width="27px" height="18px" viewBox="0 0 27 18" version="1.1" xmlns="http://www.w3.org/2000/svg" xmlns:xlink="http://www.w3.org/1999/xlink">
    <!-- Generator: Sketch 3.8.2 (29753) - http://www.bohemiancoding.com/sketch -->
    <title>english</title>
    <desc>Created with Sketch.</desc>
    <defs></defs>
    <g id="Page-1" stroke="none" stroke-width="1" fill="none" fill-rule="evenodd">
        <g id="Forside" transform="translate(-1222.000000, -229.000000)">
            <g id="english" transform="translate(1222.000000, 229.000000)">
                <g id="Group">
                    <polyline id="Shape" fill="#D30000" points="27 7.2 14.85 7.2 14.85 -3.55271368e-15 12.15 -3.55271368e-15 12.15 7.2 -3.55271368e-15 7.2 -3.55271368e-15 10.8 12.15 10.8 12.15 18 14.85 18 14.85 10.8 27 10.8"></polyline>
                    <path d="M18,12 L20.01,12 L27,16.6666667 L27,18 L18,12 Z M9,6 L6.99,6 L1.77635684e-15,1.33333333 L1.77635684e-15,-3.10862447e-15 L9,6 L9,6 Z M9,12 L11.01,12 L2.01,18 L1.77635684e-15,18 L9,12 L9,12 Z M18,6 L15.99,6 L24.99,-3.10862447e-15 L27,-3.10862447e-15 L18,6 L18,6 Z" id="Shape" fill="#D30000"></path>
                    <path d="M2.22044605e-15,12.010084 L2.22044605e-15,16.0033613 L5.97,12.010084 L2.22044605e-15,12.010084 Z M27,12.010084 L27,16.0033613 L21.03,12.010084 L27,12.010084 L27,12.010084 Z M2.22044605e-15,6.02016807 L2.22044605e-15,2.02689076 L6,6.02016807 L2.22044605e-15,6.02016807 L2.22044605e-15,6.02016807 Z M27,6.02016807 L27,2.02689076 L21.03,6.02016807 L27,6.02016807 L27,6.02016807 Z M11.25,18 L11.25,12.5243697 L3.03,18 L11.25,18 L11.25,18 Z M15.75,18 L15.75,12.5243697 L23.97,18 L15.75,18 L15.75,18 Z M11.25,3.10862447e-15 L11.25,5.47563025 L3.03,3.10862447e-15 L11.25,3.10862447e-15 L11.25,3.10862447e-15 Z M15.75,3.10862447e-15 L15.75,5.47563025 L23.97,3.10862447e-15 L15.75,3.10862447e-15 L15.75,3.10862447e-15 Z" id="Shape" fill="#002AC2"></path>
                </g>
            </g>
        </g>
    </g>
</svg>