<?xml version="1.0" encoding="UTF-8" standalone="no"?>
<svg width="30px" height="21px" viewBox="0 0 30 21" version="1.1" xmlns="http://www.w3.org/2000/svg" xmlns:xlink="http://www.w3.org/1999/xlink">
    <!-- Generator: Sketch 3.8.2 (29753) - http://www.bohemiancoding.com/sketch -->
    <title>Youtube-black</title>
    <desc>Created with Sketch.</desc>
    <defs></defs>
    <g id="Page-1" stroke="none" stroke-width="1" fill="none" fill-rule="evenodd">
        <g id="Forside" transform="translate(-185.000000, -2867.000000)" fill="#000000">
            <path d="M196.9025,2881.3726 L196.901563,2872.98361 L205.007188,2877.19256 L196.9025,2881.3726 Z M214.7,2871.52992 C214.7,2871.52992 214.406562,2869.47256 213.5075,2868.56658 C212.366562,2867.37695 211.087812,2867.37135 210.501875,2867.30231 C206.30375,2867 200.006562,2867 200.006562,2867 L199.993437,2867 C199.993437,2867 193.69625,2867 189.498125,2867.30231 C188.91125,2867.37135 187.633437,2867.37695 186.491562,2868.56658 C185.5925,2869.47256 185.3,2871.52992 185.3,2871.52992 C185.3,2871.52992 185,2873.94651 185,2876.36215 L185,2878.62758 C185,2881.04416 185.3,2883.45981 185.3,2883.45981 C185.3,2883.45981 185.5925,2885.51717 186.491562,2886.42316 C187.633437,2887.61279 189.1325,2887.57547 189.8,2887.69956 C192.2,2887.92909 200,2888 200,2888 C200,2888 206.30375,2887.99067 210.501875,2887.68836 C211.087812,2887.61839 212.366562,2887.61279 213.5075,2886.42316 C214.406562,2885.51717 214.7,2883.45981 214.7,2883.45981 C214.7,2883.45981 215,2881.04416 215,2878.62758 L215,2876.36215 C215,2873.94651 214.7,2871.52992 214.7,2871.52992 L214.7,2871.52992 Z" id="Youtube"></path>
        </g>
    </g>
</svg>