<?xml version="1.0" encoding="UTF-8" standalone="no"?>
<svg width="30px" height="30px" viewBox="0 0 30 30" version="1.1" xmlns="http://www.w3.org/2000/svg" xmlns:xlink="http://www.w3.org/1999/xlink">
    <!-- Generator: Sketch 3.8.2 (29753) - http://www.bohemiancoding.com/sketch -->
    <title>Facebook-black</title>
    <desc>Created with Sketch.</desc>
    <defs></defs>
    <g id="Page-1" stroke="none" stroke-width="1" fill="none" fill-rule="evenodd">
        <g id="Forside" transform="translate(-130.000000, -2815.000000)" fill="#000000">
            <path d="M131.632917,2844.58594 C130.730817,2844.58594 130,2843.85467 130,2842.95292 L130,2816.6329 C130,2815.73093 130.730932,2815 131.632917,2815 L157.953136,2815 C158.85489,2815 159.585938,2815.73093 159.585938,2816.6329 L159.585938,2842.95292 C159.585938,2843.85478 158.854776,2844.58594 157.953136,2844.58594 L150.413869,2844.58594 L150.413869,2833.12863 L154.259557,2833.12863 L154.835395,2828.66352 L150.413869,2828.66352 L150.413869,2825.81282 C150.413869,2824.52007 150.772849,2823.6391 152.626641,2823.6391 L154.991063,2823.63807 L154.991063,2819.64443 C154.582146,2819.59002 153.178599,2819.46844 151.545683,2819.46844 C148.136694,2819.46844 145.802808,2821.54929 145.802808,2825.37062 L145.802808,2828.66352 L141.947246,2828.66352 L141.947246,2833.12863 L145.802808,2833.12863 L145.802808,2844.58594 L131.632917,2844.58594 Z" id="Facebook"></path>
        </g>
    </g>
</svg>