<?xml version="1.0" encoding="UTF-8" standalone="no"?>
<svg width="32px" height="24px" viewBox="0 0 32 24" version="1.1" xmlns="http://www.w3.org/2000/svg" xmlns:xlink="http://www.w3.org/1999/xlink">
    <!-- Generator: Sketch 3.8.2 (29753) - http://www.bohemiancoding.com/sketch -->
    <title>help</title>
    <desc>Created with Sketch.</desc>
    <defs></defs>
    <g id="Page-1" stroke="none" stroke-width="1" fill="none" fill-rule="evenodd">
        <g id="Forside" transform="translate(-564.000000, -1517.000000)" fill="#FFFFFF">
            <g id="help" transform="translate(564.000000, 1517.000000)">
                <path d="M28.6125446,0 L10.9222613,0 L10.9222613,3.46868299 L8.84105155,3.46868299 L8.84105155,2.04266887 C8.84105155,1.42601412 8.34001956,0.924982131 7.72336481,0.924982131 C7.10671005,0.924982131 6.60567807,1.42601412 6.60567807,2.04266887 L6.60567807,3.46868299 L4.87133657,3.46868299 C3.86927259,3.46868299 3.02137231,4.12387867 2.71304493,5.08740172 L0.0922622237,10.5216717 C-0.0233605427,10.86854 -0.0233605427,11.2154083 0.0537213016,11.5622766 L0.0151803795,11.5622766 L0.0151803795,18.80797 C0.0151803795,20.1954432 1.13286712,21.274589 2.4817994,21.274589 L5.87340054,21.274589 C6.33589161,22.6620622 7.64628296,23.6641262 9.18791985,23.6641262 C10.7295567,23.6641262 12.0399481,22.6620622 12.5024392,21.274589 L19.8252144,21.274589 C20.2877054,22.6620622 21.5980968,23.6641262 23.1397337,23.6641262 C24.6813705,23.6641262 25.9917619,22.6620622 26.454253,21.274589 L28.6125446,21.274589 C30.4239679,21.274589 31.888523,19.810034 31.888523,17.9986106 L31.888523,3.23743746 C31.888523,1.46455504 30.4239679,0 28.6125446,0 L28.6125446,0 Z M4.87133657,5.7425974 L10.8837204,5.7425974 L10.8837204,11.1768674 L2.25055386,11.1768674 L4.87133657,5.7425974 L4.87133657,5.7425974 Z M9.22646077,21.4287527 C8.53272417,21.4287527 7.95461034,20.8506389 7.95461034,20.1569023 C7.95461034,19.4631657 8.53272417,18.8850518 9.22646077,18.8850518 C9.92019737,18.8850518 10.4983112,19.4631657 10.4983112,20.1569023 C10.4597703,20.8506389 9.92019737,21.4287527 9.22646077,21.4287527 L9.22646077,21.4287527 Z M23.1782746,21.4287527 C22.484538,21.4287527 21.9064242,20.8506389 21.9064242,20.1569023 C21.9064242,19.4631657 22.484538,18.8850518 23.1782746,18.8850518 C23.8720112,18.8850518 24.450125,19.4631657 24.450125,20.1569023 C24.4115841,20.8506389 23.8720112,21.4287527 23.1782746,21.4287527 L23.1782746,21.4287527 Z M29.6531495,18.0371516 C29.6531495,18.6152654 29.1906584,19.0392155 28.6510855,19.0392155 L26.4927939,19.0392155 C26.0303028,17.6517423 24.7199115,16.6496784 23.1782746,16.6496784 C21.6366377,16.6496784 20.3262463,17.6517423 19.8637553,19.0392155 L12.5409801,19.0392155 C12.078489,17.6517423 10.7680977,16.6496784 9.22646077,16.6496784 C7.68482389,16.6496784 6.37443253,17.6517423 5.91194147,19.0392155 L2.52034032,19.0392155 C2.40471755,19.0392155 2.28909479,18.9235928 2.28909479,18.80797 L2.28909479,13.3737 L10.9222613,13.3737 L10.9222613,15.4163689 L29.6916904,15.4163689 L29.6916904,18.0371516 L29.6531495,18.0371516 Z M29.6531495,13.2195363 L13.1576348,13.2195363 L13.1576348,4.43220605 L13.1576348,2.27391441 L28.6510855,2.27391441 C29.2291994,2.27391441 29.6531495,2.73640547 29.6531495,3.27597838 L29.6531495,13.2195363 L29.6531495,13.2195363 Z" id="Shape"></path>
                <polygon id="Shape" points="23.3936651 5 21.1582916 5 21.1582916 7.19683256 19 7.19683256 19 9.43220605 21.1582916 9.43220605 21.1582916 11.5519568 23.3936651 11.5519568 23.3936651 9.43220605 25.3592522 9.43220605 25.3592522 7.19683256 23.3936651 7.19683256"></polygon>
            </g>
        </g>
    </g>
</svg>