<svg xmlns="http://www.w3.org/2000/svg" viewBox="0 0 29.59 29.59"><defs><style>.a{fill:#fff;}</style></defs><title>Instagram-black</title><path class="a" d="M14.79,0c-4,0-4.52,0-6.1.09A10.86,10.86,0,0,0,5.1.78,7.25,7.25,0,0,0,2.48,2.48,7.25,7.25,0,0,0,.78,5.1,10.86,10.86,0,0,0,.09,8.69C0,10.27,0,10.78,0,14.79s0,4.52.09,6.1a10.86,10.86,0,0,0,.69,3.59A7.25,7.25,0,0,0,2.48,27.1,7.25,7.25,0,0,0,5.1,28.81a10.86,10.86,0,0,0,3.59.69c1.58,0.07,2.08.09,6.1,0.09s4.52,0,6.1-.09a10.86,10.86,0,0,0,3.59-.69,7.56,7.56,0,0,0,4.33-4.33,10.86,10.86,0,0,0,.69-3.59c0.07-1.58.09-2.08,0.09-6.1s0-4.52-.09-6.1a10.86,10.86,0,0,0-.69-3.59A7.25,7.25,0,0,0,27.1,2.48,7.25,7.25,0,0,0,24.48.78,10.86,10.86,0,0,0,20.89.09C19.31,0,18.81,0,14.79,0Zm0,2.67c3.95,0,4.42,0,6,.09a8.18,8.18,0,0,1,2.75.51,4.58,4.58,0,0,1,1.7,1.11,4.58,4.58,0,0,1,1.11,1.7,8.18,8.18,0,0,1,.51,2.75c0.07,1.56.09,2,.09,6s0,4.42-.09,6a8.18,8.18,0,0,1-.51,2.75,4.9,4.9,0,0,1-2.81,2.81,8.18,8.18,0,0,1-2.75.51c-1.56.07-2,.09-6,0.09s-4.42,0-6-.09a8.18,8.18,0,0,1-2.75-.51,4.58,4.58,0,0,1-1.7-1.11,4.58,4.58,0,0,1-1.11-1.7,8.18,8.18,0,0,1-.51-2.75c-0.07-1.56-.09-2-0.09-6s0-4.42.09-6a8.18,8.18,0,0,1,.51-2.75,4.58,4.58,0,0,1,1.11-1.7,4.58,4.58,0,0,1,1.7-1.11,8.18,8.18,0,0,1,2.75-.51C10.38,2.68,10.84,2.67,14.79,2.67Zm0,4.53a7.6,7.6,0,1,0,7.6,7.6A7.6,7.6,0,0,0,14.79,7.2Zm0,12.53a4.93,4.93,0,1,1,4.93-4.93A4.93,4.93,0,0,1,14.79,19.72ZM24.46,6.9a1.78,1.78,0,1,1-1.78-1.78A1.78,1.78,0,0,1,24.46,6.9Z" transform="translate(0 0)"/></svg>