<?xml version="1.0" encoding="UTF-8" standalone="no"?>
<svg width="28px" height="25px" viewBox="0 0 28 25" version="1.1" xmlns="http://www.w3.org/2000/svg" xmlns:xlink="http://www.w3.org/1999/xlink">
    <!-- Generator: Sketch 3.8.2 (29753) - http://www.bohemiancoding.com/sketch -->
    <title>LinkedIn-black</title>
    <desc>Created with Sketch.</desc>
    <defs></defs>
    <g id="Page-1" stroke="none" stroke-width="1" fill="none" fill-rule="evenodd">
        <g id="Forside" transform="translate(-240.000000, -2865.000000)" fill="#000000">
            <path d="M267.120443,2889.65495 L261.126455,2889.65495 L261.126455,2880.98775 C261.126455,2878.71912 260.188848,2877.17039 258.127069,2877.17039 C256.55004,2877.17039 255.673026,2878.21551 255.264816,2879.22273 C255.111738,2879.58426 255.135656,2880.08787 255.135656,2880.59149 L255.135656,2889.65495 L249.197478,2889.65495 C249.197478,2889.65495 249.274018,2874.30185 249.197478,2872.90625 L255.135656,2872.90625 L255.135656,2875.53483 C255.486462,2874.38552 257.384,2872.74522 260.412088,2872.74522 C264.168894,2872.74522 267.120443,2875.15436 267.120443,2880.34205 L267.120443,2889.65495 L267.120443,2889.65495 Z M243.192329,2870.81129 L243.154059,2870.81129 C241.240575,2870.81129 240,2869.53094 240,2867.90801 C240,2866.25351 241.27725,2865 243.229004,2865 C245.179163,2865 246.378279,2866.25035 246.416549,2867.90328 C246.416549,2869.5262 245.179163,2870.81129 243.192329,2870.81129 L243.192329,2870.81129 L243.192329,2870.81129 Z M240.68407,2872.90625 L245.970069,2872.90625 L245.970069,2889.65495 L240.68407,2889.65495 L240.68407,2872.90625 L240.68407,2872.90625 Z" id="LinkedIn"></path>
        </g>
    </g>
</svg>