<svg xmlns="http://www.w3.org/2000/svg" viewBox="0 0 27.12 24.66"><defs><style>.a{fill:#fff;}</style></defs><title>LinkedIn-black</title><path class="a" d="M27.12,24.66h-6V16c0-2.27-.94-3.82-3-3.82a3,3,0,0,0-2.86,2.05,3.82,3.82,0,0,0-.13,1.37v9.06H9.2S9.27,9.3,9.2,7.91h5.94v2.63c0.35-1.15,2.25-2.79,5.28-2.79,3.76,0,6.71,2.41,6.71,7.6v9.31h0ZM3.19,5.81h0A2.92,2.92,0,0,1,0,2.91,3,3,0,0,1,3.23,0,2.94,2.94,0,0,1,6.42,2.9,3,3,0,0,1,3.19,5.81h0ZM0.68,7.91H6V24.66H0.68V7.91h0Z" transform="translate(0 0)"/></svg>