<svg xmlns="http://www.w3.org/2000/svg" width="523.28" height="364.747"><path d="M23.375 242.333c-6.863-2.781-9.472-5.214-9.472-8.428 0-2.348 2.348-4.432 5.475-4.432 5.301 0 11.644 4.779 12.426 5.214.782.608 2.347-.175 2.954-1.131l4.433-6.69c.347-.607.52-2.173-.522-2.78-2.607-1.913-9.56-6.52-18.596-6.52C6.692 217.567 0 226.26 0 234.86c0 10.428 9.385 16.25 16.858 19.204 5.908 2.347 8.95 5.128 8.95 8.776 0 3.041-2.52 5.215-5.995 5.215-5.735 0-11.992-4.606-12.34-4.78-.608-.435-2.26-.609-2.953.521l-4.085 7.212c-.695 1.217-.435 1.564.435 2.433 1.998 1.999 8.254 6.691 19.55 6.691 12.775 0 20.509-9.035 20.509-17.985 0-11.82-10.776-17.12-17.554-19.814m482.35 0c-6.862-2.781-9.472-5.214-9.472-8.428 0-2.348 2.347-4.432 5.475-4.432 5.301 0 11.644 4.779 12.427 5.214.782.608 2.346-.175 2.954-1.131l4.432-6.69c.347-.607.522-2.173-.521-2.78-2.607-1.913-9.56-6.52-18.597-6.52-13.382 0-20.072 8.693-20.072 17.294 0 10.428 9.385 16.25 16.857 19.204 5.91 2.347 8.95 5.128 8.95 8.776 0 3.041-2.518 5.215-5.995 5.215-5.736 0-11.992-4.606-12.34-4.78-.607-.435-2.259-.609-2.954.521l-4.084 7.212c-.694 1.217-.434 1.564.435 2.433 1.999 1.999 8.253 6.691 19.55 6.691 12.775 0 20.509-9.035 20.509-17.985 0-11.82-10.775-17.12-17.554-19.814m-287.718 24.071h-7.474v-35.193h7.474c9.818 0 16.944 7.733 16.944 17.553 0 9.904-7.126 17.64-16.944 17.64m.868-47.968H198.54c-.869 0-1.564.783-1.564 1.652v57.525c0 .87.695 1.65 1.564 1.65h20.334c16.77 0 30.5-13.642 30.5-30.5 0-16.685-13.73-30.327-30.5-30.327m199.326 0h-10.427a1.65 1.65 0 00-1.65 1.652v33.456h-.087l-26.419-34.672c-.694-.696-1.304-1.304-2.17-1.304h-8.255c-.87 0-1.65.697-1.65 1.565v58.48c0 .87.869 1.65 1.737 1.65h10.34a1.65 1.65 0 001.652-1.65v-35.017h.086l26.851 36.581c.696.696 1.303.955 2.172.955h7.82c.87 0 1.652-.521 1.652-1.563v-58.481c0-.87-.781-1.652-1.652-1.652m-234.817 0h-20.388c-.871 0-1.652.783-1.652 1.652v8.747a1.65 1.65 0 001.652 1.652h8.136v30.528c0 4.346-2.694 6.604-5.127 6.604-2.347 0-3.39-.782-4.432-1.823-.695-.696-1.65-.61-2.347 0l-5.908 5.82a1.833 1.833 0 00-.174 2.173c1.478 1.824 5.648 6.343 13.209 6.343 10.167 0 18.683-6.95 18.683-19.03v-41.014a1.65 1.65 0 00-1.652-1.652M75.245 244.505h-.466l-8.506-13.294h8.972c3.737 0 6.865 2.78 6.865 6.43 0 3.91-3.128 6.864-6.865 6.864m.782-26.068h-22.68c-.956 0-1.65.782-1.65 1.651v11.123h.008-.008l8.235 13.294-6.585.002c-.956 0-1.65.78-1.65 1.65v31.455c0 .87.694 1.653 1.65 1.653H63.6c.868 0 1.652-.782 1.652-1.653v-20.42h10.861c10.602 0 19.378-8.776 19.378-19.55 0-10.515-8.776-19.205-19.465-19.205m267.218 19.204c0 3.91-3.13 6.864-6.865 6.864h-.467l-8.505-13.294h8.972c3.736 0 6.865 2.78 6.865 6.43m.132 18.532c7.652-2.607 13.248-9.929 13.248-18.532 0-10.516-8.776-19.205-19.465-19.205h-22.68a1.65 1.65 0 00-1.65 1.652v11.123h.008-.008l8.236 13.294h-6.586a1.65 1.65 0 00-1.65 1.652v31.456c0 .87.696 1.652 1.65 1.652h10.256c.868 0 1.65-.782 1.65-1.652v-20.42h2.54l13.188 21.29c.175.346.695.782 1.39.782h11.557c1.477 0 2.085-1.392 1.477-2.52l-13.161-20.572" fill="#231f20"/><path d="M143.504 231.21a1.65 1.65 0 001.652-1.651v-9.471c0-.87-.783-1.652-1.652-1.652h-35.89c-.868 0-1.649.783-1.649 1.652v9.47a1.65 1.65 0 001.65 1.653h35.889m0 48.053a1.65 1.65 0 001.652-1.652v-9.47c0-.87-.783-1.653-1.652-1.653h-35.89c-.868 0-1.649.783-1.649 1.654v9.469a1.65 1.65 0 001.65 1.652h35.889m0-24.027a1.65 1.65 0 001.652-1.65v-9.472c0-.868-.783-1.651-1.652-1.651h-35.89c-.868 0-1.649.783-1.649 1.65v9.473c0 .956.781 1.65 1.65 1.65h35.889" fill="#f03c56"/><path d="M297.859 231.21a1.65 1.65 0 001.65-1.651v-9.471c0-.87-.782-1.652-1.65-1.652h-35.891c-.87 0-1.65.783-1.65 1.652v9.47a1.65 1.65 0 001.65 1.653h35.89m.001 48.053a1.65 1.65 0 001.65-1.652v-9.47c0-.87-.782-1.653-1.65-1.653h-35.891c-.87 0-1.65.783-1.65 1.654v9.469a1.65 1.65 0 001.65 1.652h35.89m.001-24.027a1.65 1.65 0 001.65-1.65v-9.472c0-.868-.782-1.651-1.65-1.651h-35.891c-.87 0-1.65.783-1.65 1.65v9.473c0 .956.78 1.65 1.65 1.65h35.89" fill="#3e9aa1"/><path d="M469.65 231.21a1.65 1.65 0 001.651-1.651v-9.471c0-.87-.782-1.652-1.652-1.652H433.76c-.87 0-1.65.783-1.65 1.652v9.47a1.65 1.65 0 001.65 1.653h35.89m0 48.053a1.65 1.65 0 001.651-1.652v-9.47c0-.87-.782-1.653-1.652-1.653H433.76c-.87 0-1.65.783-1.65 1.654v9.469a1.65 1.65 0 001.65 1.652h35.89m0-24.027a1.65 1.65 0 001.651-1.65v-9.472c0-.868-.782-1.651-1.652-1.651H433.76c-.87 0-1.65.783-1.65 1.65v9.473c0 .956.78 1.65 1.65 1.65h35.89" fill="#fab235"/><path d="M284.275 180.336l-21.591-33.505 25.261-38.996 46.735 72.501zm-95.902.001l73.151-113.501 20.213 31.308-53.277 82.193zm159.968 1.708l-.224-.233-82.15-127.55a4.26 4.26 0 00-1.198-1.21V3.196a3.21 3.21 0 00-.936-2.264 3.199 3.199 0 00-5.463 2.264v49.837a4.38 4.38 0 00-1.246 1.236l-82.757 128.48a5.247 5.247 0 00-.194 5.368 5.187 5.187 0 004.582 2.723h165.749a5.253 5.253 0 005.248-5.245c0-1.328-.515-2.62-1.41-3.55" fill="#231f20"/><path d="M302.605 15.568l5.95-7.645a3.195 3.195 0 00.336-3.36 3.188 3.188 0 00-2.862-1.79h-34.862v25.589h34.862a3.188 3.188 0 002.862-1.789 3.194 3.194 0 00-.336-3.36l-5.95-7.645" fill="#3e9aa1"/><path d="M142.15 315.824a1.65 1.65 0 001.651-1.65v-9.472c0-.87-.782-1.651-1.65-1.651h-35.89c-.869 0-1.65.781-1.65 1.651v9.471c0 .956.781 1.65 1.65 1.65h35.89" fill="#706d6e"/><path d="M183.232 303.05h-20.39c-.869 0-1.65.783-1.65 1.652v8.746a1.65 1.65 0 001.65 1.652h8.138v30.53c0 4.346-2.695 6.603-5.127 6.603-2.348 0-3.39-.781-4.433-1.824-.695-.696-1.65-.608-2.345 0l-5.908 5.822a1.83 1.83 0 00-.175 2.173c1.477 1.825 5.648 6.343 13.207 6.343 10.168 0 18.684-6.952 18.684-19.031v-41.014c0-.869-.696-1.653-1.651-1.653m43.453 19.206c0 3.909-3.128 6.864-6.864 6.864h-.466l-8.506-13.295h8.972c3.736 0 6.864 2.78 6.864 6.43m.134 18.533c7.652-2.606 13.248-9.928 13.248-18.532 0-10.515-8.776-19.206-19.466-19.206h-22.68a1.65 1.65 0 00-1.649 1.653v11.122h.008-.008l8.235 13.295-6.586.001a1.65 1.65 0 00-1.649 1.65v31.457c0 .87.695 1.65 1.65 1.65h10.255c.868 0 1.65-.78 1.65-1.65v-20.42h2.54l13.189 21.29c.173.346.695.78 1.39.78H238.5c1.479 0 2.086-1.39 1.479-2.52l-13.161-20.57m-163.659 21.44c0 .87.696 1.65 1.65 1.65h28.868c.869 0 1.65-.78 1.65-1.65v-8.747a1.65 1.65 0 00-1.65-1.652H77.062V304.7a1.65 1.65 0 00-1.65-1.652H64.81c-.868 0-1.651.783-1.651 1.652v57.526" fill="#231f20"/><path d="M142.15 363.877c.869 0 1.651-.693 1.651-1.65v-9.471c0-.87-.782-1.652-1.65-1.652h-35.89c-.869 0-1.65.783-1.65 1.652v9.47c0 .958.781 1.651 1.65 1.651h35.89m-.001-24.027a1.65 1.65 0 001.651-1.65v-9.47c0-.871-.782-1.653-1.65-1.653h-35.89c-.869 0-1.65.782-1.65 1.652v9.47a1.65 1.65 0 001.65 1.652h35.89" fill="#706d6e"/><path d="M315.577 352.4v9.454c0 .911-.738 1.652-1.652 1.652h-36.588a1.654 1.654 0 01-1.654-1.625l-.132-6.886c-.008-.43.149-.844.442-1.16l17.292-18.655c4.776-5.041 7.495-8.832 7.428-13.18-.054-3.619-3.286-6.504-6.9-6.298-2.917.166-5.48 1.545-7.734 4.333a1.64 1.64 0 01-2.236.297c-1.948-1.404-5.582-4.027-7.492-5.405-.732-.528-.892-1.533-.391-2.283 3.733-5.572 10.057-9.985 19.597-9.985 10.316 0 19.41 6.731 19.41 17.923 0 6.818-1.75 11.975-9.706 20.282l-9.353 9.702v.175h18.01c.917 0 1.66.743 1.66 1.659m99.172 0v9.454c0 .911-.74 1.652-1.653 1.652h-36.589a1.656 1.656 0 01-1.655-1.625l-.132-6.886c-.008-.43.151-.844.443-1.16l17.292-18.655c4.777-5.041 7.495-8.832 7.43-13.18-.055-3.619-3.289-6.504-6.9-6.298-2.92.166-5.48 1.545-7.737 4.333a1.64 1.64 0 01-2.236.297c-1.948-1.404-5.581-4.027-7.492-5.405a1.662 1.662 0 01-.389-2.283c3.73-5.572 10.057-9.985 19.597-9.985 10.315 0 19.408 6.731 19.408 17.923 0 6.818-1.749 11.975-9.705 20.282l-9.353 9.702v.175h18.01c.916 0 1.66.743 1.66 1.659m45.371 0v9.454c0 .911-.74 1.652-1.65 1.652h-36.591a1.657 1.657 0 01-1.655-1.625l-.132-6.886a1.67 1.67 0 01.443-1.16l17.292-18.655c4.777-5.041 7.494-8.832 7.429-13.18-.055-3.619-3.287-6.504-6.9-6.298-2.919.166-5.48 1.545-7.736 4.333a1.64 1.64 0 01-2.236.297c-1.948-1.404-5.58-4.027-7.492-5.405a1.662 1.662 0 01-.39-2.283c3.733-5.572 10.058-9.985 19.598-9.985 10.316 0 19.408 6.731 19.408 17.923 0 6.818-1.75 11.975-9.704 20.282l-9.355 9.702v.175h18.011c.916 0 1.66.743 1.66 1.659m-105.29-18.968c0-10.577-3.149-17.572-9.355-17.572-5.507 0-9.267 5.77-9.267 17.572 0 10.577 3.148 17.746 9.267 17.746 5.682 0 9.354-5.77 9.354-17.746zm-33.222 0c0-18.62 9.18-30.773 23.867-30.773 14.337 0 23.866 11.54 23.866 30.773 0 18.796-9.18 30.946-23.866 30.946-14.336 0-23.867-11.626-23.867-30.946" fill="#231f20"/></svg>
