<svg xmlns="http://www.w3.org/2000/svg" viewBox="0 0 24 24"><defs><style>.a,.b{fill:#1d1d1b;}.a{opacity:0;}</style></defs><title>Untitled-9</title><rect class="a" width="24" height="24"/><path class="b" d="M19.76,17.64l-4-4a6.61,6.61,0,1,0-1.43,1.4l4,4A1,1,0,0,0,19.76,17.64ZM9.39,14.15h0a1,1,0,0,0-1-1,1,1,0,0,0-.64.23,4.59,4.59,0,0,1,5.33-7.47,1,1,0,0,0,1.23,1.39l0.1,0A4.56,4.56,0,0,1,9.39,14.15Z"/><path class="b" d="M9.63,9.61a1,1,0,0,0-1.34.46,8.74,8.74,0,0,0-.4,1,1,1,0,1,0,1.89.65,6.6,6.6,0,0,1,.31-0.75A1,1,0,0,0,9.63,9.61Z"/><path class="b" d="M10.93,6.87a9.33,9.33,0,0,0-.79.68A1,1,0,0,0,11.53,9a7.05,7.05,0,0,1,.62-0.53A1,1,0,0,0,10.93,6.87Z"/></svg>