<svg xmlns="http://www.w3.org/2000/svg" viewBox="0 0 29.59 27.74"><defs><style>.a{fill:#fff;}</style></defs><title>Snapchat-black</title><path class="a" d="M15.08,0H14.5a8.59,8.59,0,0,0-3.38.71A7.54,7.54,0,0,0,9,2.15a8,8,0,0,0-1.8,2.58c-0.66,1.48-.5,4-0.38,6h0l0,0.66a1.16,1.16,0,0,1-.49.09A3.22,3.22,0,0,1,5,11.1a1.18,1.18,0,0,0-.5-0.1,1.78,1.78,0,0,0-.89.25A1.22,1.22,0,0,0,3,12a1.1,1.1,0,0,0,.42,1,3.61,3.61,0,0,0,1.1.63L5,13.86a2.58,2.58,0,0,1,1.59.94,1.22,1.22,0,0,1-.14,1l0,0A9.74,9.74,0,0,1,4.9,18.14a8.37,8.37,0,0,1-1.8,1.59,6.62,6.62,0,0,1-2.52,1,0.69,0.69,0,0,0-.58.72,0.91,0.91,0,0,0,.07.3h0a1.85,1.85,0,0,0,1,.86A11.47,11.47,0,0,0,4,23.35a3.54,3.54,0,0,1,.18.64c0,0.22.1,0.45,0.17,0.69a0.76,0.76,0,0,0,.79.58,3.82,3.82,0,0,0,.68-0.09A7.68,7.68,0,0,1,7.34,25a6.83,6.83,0,0,1,1.11.09,5.28,5.28,0,0,1,2.07,1.07,6.72,6.72,0,0,0,4.09,1.59H15a6.72,6.72,0,0,0,4.09-1.59h0a5.28,5.28,0,0,1,2.07-1.07A6.82,6.82,0,0,1,22.25,25a7.77,7.77,0,0,1,1.55.16,3.68,3.68,0,0,0,.68.08h0a0.75,0.75,0,0,0,.76-0.57c0.07-.24.12-0.46,0.17-0.69a3.6,3.6,0,0,1,.18-0.63,11.49,11.49,0,0,0,2.89-.75,1.85,1.85,0,0,0,1-.85,0.88,0.88,0,0,0,.07-0.3A0.69,0.69,0,0,0,29,20.71c-4-.65-5.74-4.7-5.81-4.87l0,0a1.22,1.22,0,0,1-.14-1,2.58,2.58,0,0,1,1.59-.94l0.43-.15a3.33,3.33,0,0,0,1.18-.7,1.12,1.12,0,0,0,.36-0.81,1.27,1.27,0,0,0-.95-1.1A1.7,1.7,0,0,0,25,11a1.45,1.45,0,0,0-.6.12,3.38,3.38,0,0,1-1.23.35,1.12,1.12,0,0,1-.41-0.09l0-.57V10.7c0.13-2,.28-4.49-0.38-6a8.06,8.06,0,0,0-1.81-2.59A7.56,7.56,0,0,0,18.46.71,8.63,8.63,0,0,0,15.08,0" transform="translate(0 0)"/></svg>