<?xml version="1.0" encoding="UTF-8" standalone="no"?>
<svg width="30px" height="25px" viewBox="0 0 30 25" version="1.1" xmlns="http://www.w3.org/2000/svg" xmlns:xlink="http://www.w3.org/1999/xlink">
    <!-- Generator: Sketch 3.8.2 (29753) - http://www.bohemiancoding.com/sketch -->
    <title>Twitter-black</title>
    <desc>Created with Sketch.</desc>
    <defs></defs>
    <g id="Page-1" stroke="none" stroke-width="1" fill="none" fill-rule="evenodd">
        <g id="Forside" transform="translate(-183.000000, -2817.000000)" fill="#000000">
            <path d="M212.585938,2819.9187 C211.498845,2820.41376 210.328397,2820.74855 209.100642,2820.89814 C210.354445,2820.12884 211.316505,2818.909 211.76975,2817.45588 C210.595829,2818.16819 209.298611,2818.6864 207.912829,2818.9642 C206.80837,2817.75505 205.229828,2817 203.482839,2817 C200.132996,2817 197.415265,2819.78693 197.415265,2823.22384 C197.415265,2823.71177 197.467362,2824.18546 197.571556,2824.64134 C192.526821,2824.38135 188.055154,2821.90606 185.059572,2818.13614 C184.536864,2819.05859 184.238174,2820.12884 184.238174,2821.26854 C184.238174,2823.42685 185.309638,2825.33229 186.93854,2826.44884 C185.945222,2826.41856 185.007475,2826.13542 184.187814,2825.67242 L184.187814,2825.74899 C184.187814,2828.76564 186.28038,2831.28188 189.058892,2831.85173 C188.550077,2831.99776 188.013477,2832.07077 187.459511,2832.07077 C187.068783,2832.07077 186.686737,2832.03337 186.316848,2831.96036 C187.089622,2834.43209 189.329796,2836.23246 191.986748,2836.28054 C189.909811,2837.95092 187.291064,2838.94638 184.448299,2838.94638 C183.958586,2838.94638 183.474084,2838.91788 183,2838.8609 C185.686473,2840.62387 188.878288,2841.65495 192.30454,2841.65495 C203.470683,2841.65495 209.574726,2832.17228 209.574726,2823.94684 C209.574726,2823.67616 209.569516,2823.40548 209.559097,2823.14014 C210.745174,2822.26222 211.774959,2821.16703 212.585938,2819.9187" id="Twitter"></path>
        </g>
    </g>
</svg>