<svg xmlns="http://www.w3.org/2000/svg" viewBox="0 0 30 21"><defs><style>.a{fill:#fff;}</style></defs><title>Youtube-black</title><path class="a" d="M11.9,14.37V6L20,10.19ZM29.7,4.53a6.44,6.44,0,0,0-1.19-3A4.3,4.3,0,0,0,25.5.3C21.3,0,15,0,15,0h0S8.7,0,4.5.3a4.3,4.3,0,0,0-3,1.26,6.44,6.44,0,0,0-1.19,3A45,45,0,0,0,0,9.36v2.27a44.93,44.93,0,0,0,.3,4.83,6.44,6.44,0,0,0,1.19,3A5.1,5.1,0,0,0,4.8,20.7C7.2,20.93,15,21,15,21s6.3,0,10.5-.31a4.3,4.3,0,0,0,3-1.27,6.44,6.44,0,0,0,1.19-3,44.93,44.93,0,0,0,.3-4.83V9.36a45,45,0,0,0-.3-4.83h0Z" transform="translate(0 0)"/></svg>